<svg width="785" height="89" viewBox="0 0 785 89" fill="none" xmlns="http://www.w3.org/2000/svg">
<rect width="785" height="89" rx="16" fill="#FEF6E4"/>
<rect x="20" y="20" width="112" height="44" rx="6" fill="#ABD1C6"/>
<path d="M40.872 47.14C40.004 47.14 39.2667 46.9907 38.66 46.692C38.0627 46.384 37.6053 45.95 37.288 45.39C36.9707 44.8207 36.7933 44.1393 36.756 43.346C36.7467 42.9633 36.742 42.5527 36.742 42.114C36.742 41.6753 36.7467 41.2553 36.756 40.854C36.7933 40.07 36.9707 39.3933 37.288 38.824C37.6147 38.2547 38.0767 37.8207 38.674 37.522C39.2807 37.214 40.0133 37.06 40.872 37.06C41.5067 37.06 42.076 37.144 42.58 37.312C43.084 37.48 43.5133 37.7133 43.868 38.012C44.2227 38.3013 44.498 38.642 44.694 39.034C44.89 39.426 44.9927 39.8507 45.002 40.308C45.0113 40.392 44.9833 40.462 44.918 40.518C44.862 40.574 44.792 40.602 44.708 40.602H43.378C43.2753 40.602 43.1913 40.5787 43.126 40.532C43.0607 40.476 43.014 40.3873 42.986 40.266C42.8367 39.65 42.58 39.23 42.216 39.006C41.852 38.782 41.3993 38.67 40.858 38.67C40.2327 38.67 39.7333 38.8473 39.36 39.202C38.9867 39.5473 38.786 40.1213 38.758 40.924C38.73 41.6893 38.73 42.4733 38.758 43.276C38.786 44.0787 38.9867 44.6573 39.36 45.012C39.7333 45.3573 40.2327 45.53 40.858 45.53C41.3993 45.53 41.852 45.418 42.216 45.194C42.58 44.9607 42.8367 44.5407 42.986 43.934C43.014 43.8033 43.0607 43.7147 43.126 43.668C43.1913 43.6213 43.2753 43.598 43.378 43.598H44.708C44.792 43.598 44.862 43.626 44.918 43.682C44.9833 43.738 45.0113 43.808 45.002 43.892C44.9927 44.3493 44.89 44.774 44.694 45.166C44.498 45.558 44.2227 45.9033 43.868 46.202C43.5133 46.4913 43.084 46.72 42.58 46.888C42.076 47.056 41.5067 47.14 40.872 47.14ZM46.8303 47C46.737 47 46.6576 46.9673 46.5923 46.902C46.527 46.8367 46.4943 46.7573 46.4943 46.664V40.07C46.4943 39.9673 46.527 39.8833 46.5923 39.818C46.6576 39.7527 46.737 39.72 46.8303 39.72H47.9643C48.0576 39.72 48.137 39.7527 48.2023 39.818C48.277 39.8833 48.3143 39.9673 48.3143 40.07V40.644C48.529 40.3453 48.8043 40.1167 49.1403 39.958C49.4856 39.7993 49.8823 39.72 50.3303 39.72H50.9043C51.007 39.72 51.0863 39.7527 51.1423 39.818C51.2076 39.8833 51.2403 39.9627 51.2403 40.056V41.064C51.2403 41.1573 51.2076 41.2367 51.1423 41.302C51.0863 41.3673 51.007 41.4 50.9043 41.4H49.8123C49.3643 41.4 49.0143 41.526 48.7623 41.778C48.5196 42.03 48.3983 42.3753 48.3983 42.814V46.664C48.3983 46.7573 48.3656 46.8367 48.3003 46.902C48.235 46.9673 48.151 47 48.0483 47H46.8303ZM55.3725 47.14C54.3365 47.14 53.5152 46.8413 52.9085 46.244C52.3018 45.6467 51.9752 44.7973 51.9285 43.696C51.9192 43.6027 51.9145 43.486 51.9145 43.346C51.9145 43.1967 51.9192 43.08 51.9285 42.996C51.9658 42.296 52.1245 41.6893 52.4045 41.176C52.6938 40.6627 53.0905 40.2707 53.5945 40C54.0985 39.72 54.6912 39.58 55.3725 39.58C56.1285 39.58 56.7632 39.7387 57.2765 40.056C57.7898 40.364 58.1772 40.798 58.4385 41.358C58.6998 41.9087 58.8305 42.548 58.8305 43.276V43.57C58.8305 43.6633 58.7978 43.7427 58.7325 43.808C58.6672 43.8733 58.5832 43.906 58.4805 43.906H53.8325C53.8325 43.906 53.8325 43.92 53.8325 43.948C53.8325 43.976 53.8325 43.9993 53.8325 44.018C53.8418 44.3447 53.9025 44.648 54.0145 44.928C54.1358 45.1987 54.3085 45.418 54.5325 45.586C54.7658 45.754 55.0412 45.838 55.3585 45.838C55.6198 45.838 55.8392 45.8007 56.0165 45.726C56.1938 45.642 56.3385 45.5487 56.4505 45.446C56.5625 45.3433 56.6418 45.2593 56.6885 45.194C56.7725 45.082 56.8378 45.0167 56.8845 44.998C56.9405 44.97 57.0198 44.956 57.1225 44.956H58.3265C58.4198 44.956 58.4945 44.984 58.5505 45.04C58.6158 45.096 58.6438 45.166 58.6345 45.25C58.6252 45.3993 58.5458 45.5813 58.3965 45.796C58.2565 46.0107 58.0512 46.2207 57.7805 46.426C57.5098 46.6313 57.1692 46.804 56.7585 46.944C56.3572 47.0747 55.8952 47.14 55.3725 47.14ZM53.8325 42.73H56.9265V42.688C56.9265 42.324 56.8658 42.0067 56.7445 41.736C56.6232 41.4653 56.4458 41.2507 56.2125 41.092C55.9792 40.9333 55.6992 40.854 55.3725 40.854C55.0458 40.854 54.7658 40.9333 54.5325 41.092C54.2992 41.2507 54.1218 41.4653 54.0005 41.736C53.8885 42.0067 53.8325 42.324 53.8325 42.688V42.73ZM62.4306 47.14C61.9452 47.14 61.5066 47.0467 61.1146 46.86C60.7226 46.664 60.4099 46.4073 60.1766 46.09C59.9526 45.7633 59.8406 45.3993 59.8406 44.998C59.8406 44.3447 60.1019 43.8267 60.6246 43.444C61.1566 43.052 61.8566 42.7907 62.7246 42.66L64.6426 42.38V42.086C64.6426 41.694 64.5446 41.3907 64.3486 41.176C64.1526 40.9613 63.8166 40.854 63.3406 40.854C63.0046 40.854 62.7292 40.924 62.5146 41.064C62.3092 41.1947 62.1552 41.372 62.0526 41.596C61.9779 41.7173 61.8706 41.778 61.7306 41.778H60.6246C60.5219 41.778 60.4426 41.75 60.3866 41.694C60.3399 41.638 60.3166 41.5633 60.3166 41.47C60.3259 41.3207 60.3866 41.1387 60.4986 40.924C60.6106 40.7093 60.7879 40.504 61.0306 40.308C61.2732 40.1027 61.5859 39.93 61.9686 39.79C62.3512 39.65 62.8132 39.58 63.3546 39.58C63.9426 39.58 64.4372 39.6547 64.8386 39.804C65.2492 39.944 65.5759 40.1353 65.8186 40.378C66.0612 40.6207 66.2386 40.9053 66.3506 41.232C66.4626 41.5587 66.5186 41.904 66.5186 42.268V46.664C66.5186 46.7573 66.4859 46.8367 66.4206 46.902C66.3552 46.9673 66.2759 47 66.1826 47H65.0486C64.9459 47 64.8619 46.9673 64.7966 46.902C64.7406 46.8367 64.7126 46.7573 64.7126 46.664V46.118C64.5912 46.2953 64.4279 46.4633 64.2226 46.622C64.0172 46.7713 63.7652 46.8973 63.4666 47C63.1772 47.0933 62.8319 47.14 62.4306 47.14ZM62.9066 45.81C63.2332 45.81 63.5272 45.74 63.7886 45.6C64.0592 45.46 64.2692 45.2453 64.4186 44.956C64.5772 44.6573 64.6566 44.284 64.6566 43.836V43.542L63.2566 43.766C62.7059 43.85 62.2952 43.9853 62.0246 44.172C61.7539 44.3587 61.6186 44.5873 61.6186 44.858C61.6186 45.0633 61.6792 45.2407 61.8006 45.39C61.9312 45.53 62.0946 45.6373 62.2906 45.712C62.4866 45.7773 62.6919 45.81 62.9066 45.81ZM71.5363 47C70.9763 47 70.5049 46.902 70.1223 46.706C69.7396 46.51 69.4549 46.2207 69.2683 45.838C69.0816 45.446 68.9883 44.9607 68.9883 44.382V41.204H67.8823C67.7889 41.204 67.7096 41.1713 67.6443 41.106C67.5789 41.0407 67.5463 40.9613 67.5463 40.868V40.056C67.5463 39.9627 67.5789 39.8833 67.6443 39.818C67.7096 39.7527 67.7889 39.72 67.8823 39.72H68.9883V37.396C68.9883 37.3027 69.0163 37.2233 69.0723 37.158C69.1376 37.0927 69.2216 37.06 69.3243 37.06H70.4583C70.5516 37.06 70.6309 37.0927 70.6963 37.158C70.7616 37.2233 70.7943 37.3027 70.7943 37.396V39.72H72.5443C72.6376 39.72 72.7169 39.7527 72.7823 39.818C72.8476 39.8833 72.8803 39.9627 72.8803 40.056V40.868C72.8803 40.9613 72.8476 41.0407 72.7823 41.106C72.7169 41.1713 72.6376 41.204 72.5443 41.204H70.7943V44.242C70.7943 44.6247 70.8596 44.9233 70.9903 45.138C71.1303 45.3527 71.3683 45.46 71.7043 45.46H72.6703C72.7636 45.46 72.8429 45.4927 72.9083 45.558C72.9736 45.6233 73.0063 45.7027 73.0063 45.796V46.664C73.0063 46.7573 72.9736 46.8367 72.9083 46.902C72.8429 46.9673 72.7636 47 72.6703 47H71.5363ZM77.3842 47.14C76.3482 47.14 75.5269 46.8413 74.9202 46.244C74.3136 45.6467 73.9869 44.7973 73.9402 43.696C73.9309 43.6027 73.9262 43.486 73.9262 43.346C73.9262 43.1967 73.9309 43.08 73.9402 42.996C73.9776 42.296 74.1362 41.6893 74.4162 41.176C74.7056 40.6627 75.1022 40.2707 75.6062 40C76.1102 39.72 76.7029 39.58 77.3842 39.58C78.1402 39.58 78.7749 39.7387 79.2882 40.056C79.8016 40.364 80.1889 40.798 80.4502 41.358C80.7116 41.9087 80.8422 42.548 80.8422 43.276V43.57C80.8422 43.6633 80.8096 43.7427 80.7442 43.808C80.6789 43.8733 80.5949 43.906 80.4922 43.906H75.8442C75.8442 43.906 75.8442 43.92 75.8442 43.948C75.8442 43.976 75.8442 43.9993 75.8442 44.018C75.8536 44.3447 75.9142 44.648 76.0262 44.928C76.1476 45.1987 76.3202 45.418 76.5442 45.586C76.7776 45.754 77.0529 45.838 77.3702 45.838C77.6316 45.838 77.8509 45.8007 78.0282 45.726C78.2056 45.642 78.3502 45.5487 78.4622 45.446C78.5742 45.3433 78.6536 45.2593 78.7002 45.194C78.7842 45.082 78.8496 45.0167 78.8962 44.998C78.9522 44.97 79.0316 44.956 79.1342 44.956H80.3382C80.4316 44.956 80.5062 44.984 80.5622 45.04C80.6276 45.096 80.6556 45.166 80.6462 45.25C80.6369 45.3993 80.5576 45.5813 80.4082 45.796C80.2682 46.0107 80.0629 46.2207 79.7922 46.426C79.5216 46.6313 79.1809 46.804 78.7702 46.944C78.3689 47.0747 77.9069 47.14 77.3842 47.14ZM75.8442 42.73H78.9382V42.688C78.9382 42.324 78.8776 42.0067 78.7562 41.736C78.6349 41.4653 78.4576 41.2507 78.2242 41.092C77.9909 40.9333 77.7109 40.854 77.3842 40.854C77.0576 40.854 76.7776 40.9333 76.5442 41.092C76.3109 41.2507 76.1336 41.4653 76.0122 41.736C75.9002 42.0067 75.8442 42.324 75.8442 42.688V42.73ZM86.0315 47C85.9382 47 85.8588 46.9673 85.7935 46.902C85.7282 46.8367 85.6955 46.7573 85.6955 46.664V37.55C85.6955 37.4473 85.7282 37.3633 85.7935 37.298C85.8588 37.2327 85.9382 37.2 86.0315 37.2H89.7835C90.5115 37.2 91.1462 37.3167 91.6875 37.55C92.2288 37.774 92.6488 38.1193 92.9475 38.586C93.2462 39.0433 93.3955 39.6173 93.3955 40.308C93.3955 41.008 93.2462 41.5867 92.9475 42.044C92.6488 42.492 92.2288 42.828 91.6875 43.052C91.1462 43.276 90.5115 43.388 89.7835 43.388H87.6975V46.664C87.6975 46.7573 87.6648 46.8367 87.5995 46.902C87.5435 46.9673 87.4642 47 87.3615 47H86.0315ZM87.6695 41.834H89.7135C90.2548 41.834 90.6702 41.708 90.9595 41.456C91.2488 41.1947 91.3935 40.812 91.3935 40.308C91.3935 39.8413 91.2582 39.468 90.9875 39.188C90.7168 38.8987 90.2922 38.754 89.7135 38.754H87.6695V41.834ZM97.8803 47.14C97.1337 47.14 96.5037 47.0093 95.9903 46.748C95.4863 46.4867 95.099 46.118 94.8283 45.642C94.567 45.166 94.4177 44.6107 94.3803 43.976C94.371 43.808 94.3663 43.6027 94.3663 43.36C94.3663 43.1173 94.371 42.912 94.3803 42.744C94.4177 42.1 94.5717 41.5447 94.8423 41.078C95.1223 40.602 95.5143 40.2333 96.0183 39.972C96.5317 39.7107 97.1523 39.58 97.8803 39.58C98.6083 39.58 99.2243 39.7107 99.7283 39.972C100.242 40.2333 100.634 40.602 100.904 41.078C101.184 41.5447 101.343 42.1 101.38 42.744C101.39 42.912 101.394 43.1173 101.394 43.36C101.394 43.6027 101.39 43.808 101.38 43.976C101.343 44.6107 101.189 45.166 100.918 45.642C100.657 46.118 100.27 46.4867 99.7563 46.748C99.2523 47.0093 98.627 47.14 97.8803 47.14ZM97.8803 45.754C98.375 45.754 98.7577 45.6 99.0283 45.292C99.299 44.9747 99.4483 44.5127 99.4763 43.906C99.4857 43.766 99.4903 43.584 99.4903 43.36C99.4903 43.136 99.4857 42.954 99.4763 42.814C99.4483 42.2167 99.299 41.7593 99.0283 41.442C98.7577 41.1247 98.375 40.966 97.8803 40.966C97.3857 40.966 97.003 41.1247 96.7323 41.442C96.4617 41.7593 96.3123 42.2167 96.2843 42.814C96.275 42.954 96.2703 43.136 96.2703 43.36C96.2703 43.584 96.275 43.766 96.2843 43.906C96.3123 44.5127 96.4617 44.9747 96.7323 45.292C97.003 45.6 97.3857 45.754 97.8803 45.754ZM105.703 47.14C105.143 47.14 104.663 47.0747 104.261 46.944C103.869 46.8133 103.547 46.65 103.295 46.454C103.043 46.258 102.857 46.062 102.735 45.866C102.614 45.67 102.549 45.5067 102.539 45.376C102.53 45.2733 102.558 45.194 102.623 45.138C102.698 45.0727 102.777 45.04 102.861 45.04H103.967C104.005 45.04 104.037 45.0447 104.065 45.054C104.093 45.0633 104.131 45.0913 104.177 45.138C104.299 45.2407 104.425 45.348 104.555 45.46C104.695 45.572 104.859 45.67 105.045 45.754C105.232 45.8287 105.465 45.866 105.745 45.866C106.109 45.866 106.413 45.796 106.655 45.656C106.907 45.5067 107.033 45.2967 107.033 45.026C107.033 44.83 106.977 44.6713 106.865 44.55C106.763 44.4287 106.567 44.3213 106.277 44.228C105.988 44.1253 105.577 44.018 105.045 43.906C104.523 43.7847 104.089 43.6307 103.743 43.444C103.398 43.2573 103.141 43.024 102.973 42.744C102.805 42.464 102.721 42.1373 102.721 41.764C102.721 41.4 102.829 41.0547 103.043 40.728C103.267 40.392 103.594 40.1167 104.023 39.902C104.462 39.6873 105.003 39.58 105.647 39.58C106.151 39.58 106.59 39.6453 106.963 39.776C107.337 39.8973 107.645 40.0513 107.887 40.238C108.139 40.4247 108.331 40.616 108.461 40.812C108.592 40.9987 108.662 41.162 108.671 41.302C108.681 41.4047 108.653 41.4887 108.587 41.554C108.522 41.61 108.447 41.638 108.363 41.638H107.327C107.281 41.638 107.239 41.6287 107.201 41.61C107.164 41.5913 107.127 41.568 107.089 41.54C106.987 41.4467 106.875 41.3487 106.753 41.246C106.632 41.1433 106.483 41.0547 106.305 40.98C106.137 40.896 105.913 40.854 105.633 40.854C105.279 40.854 105.008 40.9333 104.821 41.092C104.635 41.2413 104.541 41.4327 104.541 41.666C104.541 41.8247 104.583 41.9647 104.667 42.086C104.761 42.198 104.943 42.3053 105.213 42.408C105.484 42.5107 105.895 42.618 106.445 42.73C107.071 42.842 107.565 43.01 107.929 43.234C108.303 43.4487 108.564 43.7007 108.713 43.99C108.872 44.27 108.951 44.5827 108.951 44.928C108.951 45.348 108.825 45.726 108.573 46.062C108.331 46.398 107.967 46.664 107.481 46.86C107.005 47.0467 106.413 47.14 105.703 47.14ZM113.659 47C113.099 47 112.628 46.902 112.245 46.706C111.863 46.51 111.578 46.2207 111.391 45.838C111.205 45.446 111.111 44.9607 111.111 44.382V41.204H110.005C109.912 41.204 109.833 41.1713 109.767 41.106C109.702 41.0407 109.669 40.9613 109.669 40.868V40.056C109.669 39.9627 109.702 39.8833 109.767 39.818C109.833 39.7527 109.912 39.72 110.005 39.72H111.111V37.396C111.111 37.3027 111.139 37.2233 111.195 37.158C111.261 37.0927 111.345 37.06 111.447 37.06H112.581C112.675 37.06 112.754 37.0927 112.819 37.158C112.885 37.2233 112.917 37.3027 112.917 37.396V39.72H114.667C114.761 39.72 114.84 39.7527 114.905 39.818C114.971 39.8833 115.003 39.9627 115.003 40.056V40.868C115.003 40.9613 114.971 41.0407 114.905 41.106C114.84 41.1713 114.761 41.204 114.667 41.204H112.917V44.242C112.917 44.6247 112.983 44.9233 113.113 45.138C113.253 45.3527 113.491 45.46 113.827 45.46H114.793C114.887 45.46 114.966 45.4927 115.031 45.558C115.097 45.6233 115.129 45.7027 115.129 45.796V46.664C115.129 46.7573 115.097 46.8367 115.031 46.902C114.966 46.9673 114.887 47 114.793 47H113.659Z" fill="white"/>
<rect x="194" y="22" width="554" height="40" rx="8" fill="#F4F6F8"/>
<path d="M217.164 47V38.796H214.392V37.816H221.112V38.796H218.34V47H217.164ZM222.301 49.926C222.152 49.926 222.007 49.912 221.867 49.884C221.736 49.856 221.615 49.8233 221.503 49.786L221.727 48.876C221.802 48.8947 221.886 48.9133 221.979 48.932C222.072 48.96 222.161 48.974 222.245 48.974C222.628 48.974 222.945 48.834 223.197 48.554C223.449 48.2833 223.645 47.938 223.785 47.518L223.939 47.014L221.209 40.196H222.399L223.785 43.962C223.888 44.2513 223.995 44.564 224.107 44.9C224.228 45.236 224.34 45.5627 224.443 45.88H224.499C224.602 45.572 224.7 45.25 224.793 44.914C224.886 44.578 224.98 44.2607 225.073 43.962L226.291 40.196H227.411L224.849 47.56C224.69 48.008 224.499 48.4093 224.275 48.764C224.06 49.1187 223.79 49.3987 223.463 49.604C223.146 49.8187 222.758 49.926 222.301 49.926ZM228.724 49.87V40.196H229.676L229.774 40.98H229.816C230.124 40.7187 230.46 40.4947 230.824 40.308C231.198 40.1213 231.585 40.028 231.986 40.028C232.864 40.028 233.531 40.3453 233.988 40.98C234.446 41.6053 234.674 42.4453 234.674 43.5C234.674 44.2653 234.534 44.9233 234.254 45.474C233.984 46.0247 233.624 46.4447 233.176 46.734C232.738 47.0233 232.257 47.168 231.734 47.168C231.417 47.168 231.1 47.098 230.782 46.958C230.474 46.818 230.162 46.6267 229.844 46.384L229.872 47.574V49.87H228.724ZM231.538 46.202C232.098 46.202 232.56 45.964 232.924 45.488C233.298 45.0027 233.484 44.34 233.484 43.5C233.484 42.7533 233.344 42.1513 233.064 41.694C232.794 41.2273 232.336 40.994 231.692 40.994C231.403 40.994 231.109 41.0733 230.81 41.232C230.521 41.3907 230.208 41.6193 229.872 41.918V45.488C230.18 45.7493 230.479 45.936 230.768 46.048C231.058 46.1507 231.314 46.202 231.538 46.202ZM239.248 47.168C238.641 47.168 238.09 47.028 237.596 46.748C237.101 46.4587 236.709 46.048 236.42 45.516C236.13 44.984 235.986 44.3493 235.986 43.612C235.986 42.8653 236.13 42.226 236.42 41.694C236.718 41.162 237.101 40.7513 237.568 40.462C238.034 40.1727 238.524 40.028 239.038 40.028C239.906 40.028 240.573 40.3173 241.04 40.896C241.516 41.4747 241.754 42.2493 241.754 43.22C241.754 43.3413 241.749 43.4627 241.74 43.584C241.74 43.696 241.73 43.794 241.712 43.878H237.12C237.166 44.5967 237.39 45.1707 237.792 45.6C238.202 46.0293 238.734 46.244 239.388 46.244C239.714 46.244 240.013 46.1973 240.284 46.104C240.564 46.0013 240.83 45.8707 241.082 45.712L241.488 46.468C241.198 46.6547 240.867 46.818 240.494 46.958C240.13 47.098 239.714 47.168 239.248 47.168ZM237.106 43.052H240.746C240.746 42.3613 240.596 41.8387 240.298 41.484C240.008 41.12 239.598 40.938 239.066 40.938C238.59 40.938 238.16 41.1247 237.778 41.498C237.404 41.862 237.18 42.38 237.106 43.052ZM246.238 47V37.032H247.386V39.748L247.344 41.148C247.671 40.84 248.011 40.5787 248.366 40.364C248.73 40.14 249.145 40.028 249.612 40.028C250.331 40.028 250.853 40.2567 251.18 40.714C251.516 41.162 251.684 41.82 251.684 42.688V47H250.536V42.842C250.536 42.2073 250.433 41.7453 250.228 41.456C250.023 41.1667 249.696 41.022 249.248 41.022C248.903 41.022 248.59 41.1107 248.31 41.288C248.039 41.4653 247.731 41.7267 247.386 42.072V47H246.238ZM256.611 47.168C256.004 47.168 255.454 47.028 254.959 46.748C254.464 46.4587 254.072 46.048 253.783 45.516C253.494 44.984 253.349 44.3493 253.349 43.612C253.349 42.8653 253.494 42.226 253.783 41.694C254.082 41.162 254.464 40.7513 254.931 40.462C255.398 40.1727 255.888 40.028 256.401 40.028C257.269 40.028 257.936 40.3173 258.403 40.896C258.879 41.4747 259.117 42.2493 259.117 43.22C259.117 43.3413 259.112 43.4627 259.103 43.584C259.103 43.696 259.094 43.794 259.075 43.878H254.483C254.53 44.5967 254.754 45.1707 255.155 45.6C255.566 46.0293 256.098 46.244 256.751 46.244C257.078 46.244 257.376 46.1973 257.647 46.104C257.927 46.0013 258.193 45.8707 258.445 45.712L258.851 46.468C258.562 46.6547 258.23 46.818 257.857 46.958C257.493 47.098 257.078 47.168 256.611 47.168ZM254.469 43.052H258.109C258.109 42.3613 257.96 41.8387 257.661 41.484C257.372 41.12 256.961 40.938 256.429 40.938C255.953 40.938 255.524 41.1247 255.141 41.498C254.768 41.862 254.544 42.38 254.469 43.052ZM260.798 47V40.196H261.75L261.848 41.428H261.89C262.124 40.9987 262.408 40.658 262.744 40.406C263.08 40.154 263.44 40.028 263.822 40.028C264.093 40.028 264.336 40.0747 264.55 40.168L264.326 41.176C264.214 41.1387 264.112 41.1107 264.018 41.092C263.925 41.0733 263.808 41.064 263.668 41.064C263.379 41.064 263.076 41.1807 262.758 41.414C262.45 41.6473 262.18 42.0533 261.946 42.632V47H260.798ZM268.273 47.168C267.667 47.168 267.116 47.028 266.621 46.748C266.127 46.4587 265.735 46.048 265.445 45.516C265.156 44.984 265.011 44.3493 265.011 43.612C265.011 42.8653 265.156 42.226 265.445 41.694C265.744 41.162 266.127 40.7513 266.593 40.462C267.06 40.1727 267.55 40.028 268.063 40.028C268.931 40.028 269.599 40.3173 270.065 40.896C270.541 41.4747 270.779 42.2493 270.779 43.22C270.779 43.3413 270.775 43.4627 270.765 43.584C270.765 43.696 270.756 43.794 270.737 43.878H266.145C266.192 44.5967 266.416 45.1707 266.817 45.6C267.228 46.0293 267.76 46.244 268.413 46.244C268.74 46.244 269.039 46.1973 269.309 46.104C269.589 46.0013 269.855 45.8707 270.107 45.712L270.513 46.468C270.224 46.6547 269.893 46.818 269.519 46.958C269.155 47.098 268.74 47.168 268.273 47.168ZM266.131 43.052H269.771C269.771 42.3613 269.622 41.8387 269.323 41.484C269.034 41.12 268.623 40.938 268.091 40.938C267.615 40.938 267.186 41.1247 266.803 41.498C266.43 41.862 266.206 42.38 266.131 43.052ZM277.405 47.168C276.677 47.168 276.169 46.958 275.879 46.538C275.599 46.118 275.459 45.572 275.459 44.9V41.134H274.451V40.266L275.515 40.196L275.655 38.292H276.621V40.196H278.455V41.134H276.621V44.914C276.621 45.334 276.696 45.6607 276.845 45.894C277.004 46.118 277.279 46.23 277.671 46.23C277.793 46.23 277.923 46.2113 278.063 46.174C278.203 46.1273 278.329 46.0853 278.441 46.048L278.665 46.916C278.479 46.9813 278.273 47.0373 278.049 47.084C277.835 47.14 277.62 47.168 277.405 47.168ZM282.448 47.168C281.898 47.168 281.38 47.028 280.894 46.748C280.418 46.468 280.031 46.062 279.732 45.53C279.443 44.998 279.298 44.3587 279.298 43.612C279.298 42.8467 279.443 42.198 279.732 41.666C280.031 41.134 280.418 40.728 280.894 40.448C281.38 40.168 281.898 40.028 282.448 40.028C283.008 40.028 283.526 40.168 284.002 40.448C284.478 40.728 284.861 41.134 285.15 41.666C285.449 42.198 285.598 42.8467 285.598 43.612C285.598 44.3587 285.449 44.998 285.15 45.53C284.861 46.062 284.478 46.468 284.002 46.748C283.526 47.028 283.008 47.168 282.448 47.168ZM282.448 46.216C283.036 46.216 283.508 45.978 283.862 45.502C284.226 45.0167 284.408 44.3867 284.408 43.612C284.408 42.828 284.226 42.1933 283.862 41.708C283.508 41.2227 283.036 40.98 282.448 40.98C281.87 40.98 281.398 41.2227 281.034 41.708C280.67 42.1933 280.488 42.828 280.488 43.612C280.488 44.3867 280.67 45.0167 281.034 45.502C281.398 45.978 281.87 46.216 282.448 46.216ZM291.971 47.168C291.486 47.168 291.024 47.0793 290.585 46.902C290.146 46.7153 289.764 46.4913 289.437 46.23L290.011 45.46C290.31 45.6933 290.618 45.8893 290.935 46.048C291.252 46.1973 291.612 46.272 292.013 46.272C292.461 46.272 292.797 46.1693 293.021 45.964C293.245 45.7493 293.357 45.4973 293.357 45.208C293.357 44.9747 293.278 44.7787 293.119 44.62C292.97 44.4613 292.774 44.3307 292.531 44.228C292.298 44.116 292.055 44.0133 291.803 43.92C291.486 43.7987 291.173 43.6633 290.865 43.514C290.557 43.3553 290.305 43.1547 290.109 42.912C289.913 42.66 289.815 42.3427 289.815 41.96C289.815 41.4093 290.02 40.952 290.431 40.588C290.851 40.2147 291.43 40.028 292.167 40.028C292.587 40.028 292.979 40.1027 293.343 40.252C293.707 40.4013 294.02 40.5833 294.281 40.798L293.721 41.526C293.488 41.3487 293.245 41.204 292.993 41.092C292.741 40.98 292.466 40.924 292.167 40.924C291.738 40.924 291.42 41.022 291.215 41.218C291.019 41.414 290.921 41.6427 290.921 41.904C290.921 42.1187 290.991 42.296 291.131 42.436C291.271 42.5667 291.453 42.6833 291.677 42.786C291.901 42.8793 292.139 42.9773 292.391 43.08C292.718 43.2013 293.04 43.3413 293.357 43.5C293.674 43.6493 293.936 43.8547 294.141 44.116C294.356 44.368 294.463 44.7087 294.463 45.138C294.463 45.502 294.365 45.838 294.169 46.146C293.982 46.454 293.702 46.7013 293.329 46.888C292.965 47.0747 292.512 47.168 291.971 47.168ZM298.816 47.168C298.209 47.168 297.659 47.028 297.164 46.748C296.669 46.4587 296.277 46.048 295.988 45.516C295.699 44.984 295.554 44.3493 295.554 43.612C295.554 42.8653 295.699 42.226 295.988 41.694C296.287 41.162 296.669 40.7513 297.136 40.462C297.603 40.1727 298.093 40.028 298.606 40.028C299.474 40.028 300.141 40.3173 300.608 40.896C301.084 41.4747 301.322 42.2493 301.322 43.22C301.322 43.3413 301.317 43.4627 301.308 43.584C301.308 43.696 301.299 43.794 301.28 43.878H296.688C296.735 44.5967 296.959 45.1707 297.36 45.6C297.771 46.0293 298.303 46.244 298.956 46.244C299.283 46.244 299.581 46.1973 299.852 46.104C300.132 46.0013 300.398 45.8707 300.65 45.712L301.056 46.468C300.767 46.6547 300.435 46.818 300.062 46.958C299.698 47.098 299.283 47.168 298.816 47.168ZM296.674 43.052H300.314C300.314 42.3613 300.165 41.8387 299.866 41.484C299.577 41.12 299.166 40.938 298.634 40.938C298.158 40.938 297.729 41.1247 297.346 41.498C296.973 41.862 296.749 42.38 296.674 43.052ZM304.38 47.168C303.811 47.168 303.335 47 302.952 46.664C302.579 46.3187 302.392 45.8427 302.392 45.236C302.392 44.4893 302.723 43.92 303.386 43.528C304.058 43.1267 305.117 42.8467 306.564 42.688C306.564 42.3987 306.522 42.1233 306.438 41.862C306.363 41.6007 306.223 41.3907 306.018 41.232C305.822 41.064 305.537 40.98 305.164 40.98C304.772 40.98 304.403 41.0547 304.058 41.204C303.713 41.3533 303.405 41.5213 303.134 41.708L302.686 40.91C303.003 40.7047 303.391 40.5087 303.848 40.322C304.315 40.126 304.819 40.028 305.36 40.028C306.191 40.028 306.793 40.2847 307.166 40.798C307.539 41.302 307.726 41.9787 307.726 42.828V47H306.774L306.676 46.188H306.634C306.317 46.4493 305.967 46.678 305.584 46.874C305.211 47.07 304.809 47.168 304.38 47.168ZM304.716 46.244C305.043 46.244 305.351 46.1647 305.64 46.006C305.929 45.8473 306.237 45.6233 306.564 45.334V43.444C305.435 43.584 304.641 43.794 304.184 44.074C303.736 44.354 303.512 44.7133 303.512 45.152C303.512 45.5347 303.629 45.8147 303.862 45.992C304.095 46.16 304.38 46.244 304.716 46.244ZM309.867 47V40.196H310.819L310.917 41.428H310.959C311.192 40.9987 311.477 40.658 311.813 40.406C312.149 40.154 312.508 40.028 312.891 40.028C313.161 40.028 313.404 40.0747 313.619 40.168L313.395 41.176C313.283 41.1387 313.18 41.1107 313.087 41.092C312.993 41.0733 312.877 41.064 312.737 41.064C312.447 41.064 312.144 41.1807 311.827 41.414C311.519 41.6473 311.248 42.0533 311.015 42.632V47H309.867ZM317.272 47.168C316.674 47.168 316.133 47.028 315.648 46.748C315.162 46.468 314.78 46.062 314.5 45.53C314.22 44.998 314.08 44.3587 314.08 43.612C314.08 42.8467 314.229 42.198 314.528 41.666C314.836 41.134 315.237 40.728 315.732 40.448C316.236 40.168 316.777 40.028 317.356 40.028C317.804 40.028 318.186 40.1073 318.504 40.266C318.83 40.4247 319.11 40.6113 319.344 40.826L318.756 41.582C318.56 41.4047 318.35 41.26 318.126 41.148C317.911 41.036 317.668 40.98 317.398 40.98C316.987 40.98 316.618 41.092 316.292 41.316C315.974 41.5307 315.722 41.8387 315.536 42.24C315.358 42.632 315.27 43.0893 315.27 43.612C315.27 44.3867 315.461 45.0167 315.844 45.502C316.236 45.978 316.744 46.216 317.37 46.216C317.687 46.216 317.981 46.1507 318.252 46.02C318.522 45.88 318.76 45.7167 318.966 45.53L319.47 46.3C319.162 46.5707 318.821 46.7853 318.448 46.944C318.074 47.0933 317.682 47.168 317.272 47.168ZM320.968 47V37.032H322.116V39.748L322.074 41.148C322.401 40.84 322.742 40.5787 323.096 40.364C323.46 40.14 323.876 40.028 324.342 40.028C325.061 40.028 325.584 40.2567 325.91 40.714C326.246 41.162 326.414 41.82 326.414 42.688V47H325.266V42.842C325.266 42.2073 325.164 41.7453 324.958 41.456C324.753 41.1667 324.426 41.022 323.978 41.022C323.633 41.022 323.32 41.1107 323.04 41.288C322.77 41.4653 322.462 41.7267 322.116 42.072V47H320.968ZM329.186 47.168C328.952 47.168 328.752 47.0887 328.584 46.93C328.425 46.762 328.346 46.552 328.346 46.3C328.346 46.0293 328.425 45.8147 328.584 45.656C328.752 45.488 328.952 45.404 329.186 45.404C329.41 45.404 329.601 45.488 329.76 45.656C329.928 45.8147 330.012 46.0293 330.012 46.3C330.012 46.552 329.928 46.762 329.76 46.93C329.601 47.0887 329.41 47.168 329.186 47.168ZM332.672 47.168C332.439 47.168 332.238 47.0887 332.07 46.93C331.911 46.762 331.832 46.552 331.832 46.3C331.832 46.0293 331.911 45.8147 332.07 45.656C332.238 45.488 332.439 45.404 332.672 45.404C332.896 45.404 333.087 45.488 333.246 45.656C333.414 45.8147 333.498 46.0293 333.498 46.3C333.498 46.552 333.414 46.762 333.246 46.93C333.087 47.0887 332.896 47.168 332.672 47.168ZM336.158 47.168C335.925 47.168 335.724 47.0887 335.556 46.93C335.398 46.762 335.318 46.552 335.318 46.3C335.318 46.0293 335.398 45.8147 335.556 45.656C335.724 45.488 335.925 45.404 336.158 45.404C336.382 45.404 336.574 45.488 336.732 45.656C336.9 45.8147 336.984 46.0293 336.984 46.3C336.984 46.552 336.9 46.762 336.732 46.93C336.574 47.0887 336.382 47.168 336.158 47.168Z" fill="#858EAD"/>
<circle cx="719" cy="41" r="8" stroke="#858EAD" stroke-width="2"/>
<path d="M724.5 47.5L728.5 51.5" stroke="#858EAD" stroke-width="2" stroke-linecap="round"/>
</svg>
