<svg width="51" height="61" viewBox="0 0 51 61" fill="none" xmlns="http://www.w3.org/2000/svg">
<g id="Group">
<g id="Group_2">
<path id="Vector" d="M45.6 11.7597L29.4405 1.54473C26.7117 -0.180253 23.321 -0.180135 20.592 1.54473L4.4326 11.7597C1.69842 13.4878 0 16.7108 0 20.1707V40.5846C0 44.0445 1.69842 47.2675 4.43249 48.9956L20.592 59.2106C23.3214 60.9359 26.712 60.9353 29.4405 59.2106L45.5999 48.9956C48.3341 47.2675 50.0325 44.0445 50.0325 40.5846V20.1707C50.0325 16.7109 48.3341 13.488 45.6 11.7597ZM45.7379 40.5846C45.7379 42.3668 44.8631 44.027 43.4546 44.9171L27.2951 55.132C25.8894 56.0208 24.1431 56.0208 22.7373 55.132L6.57777 44.9171C5.16945 44.0268 4.29464 42.3668 4.29464 40.5846V20.1707C4.29464 18.3886 5.16945 16.7284 6.57788 15.8383L22.7373 5.62336C24.1432 4.73463 25.89 4.73498 27.2952 5.62336L43.4547 15.8382C44.8631 16.7284 45.7379 18.3885 45.7379 20.1707V40.5846Z" fill="#445964"/>
<path id="Vector_2" d="M22.9758 28.5806L15.0005 21.1827C14.0953 20.343 12.7402 20.4667 11.9742 21.4592C11.2081 22.4517 11.3211 23.937 12.2264 24.7768L18.2644 30.3777L12.2264 35.9786C11.3211 36.8184 11.2082 38.3036 11.9742 39.2962C12.7421 40.2908 14.0975 40.4103 15.0005 39.5725L22.9758 32.1746C23.9904 31.2335 23.9875 29.5191 22.9758 28.5806Z" fill="#445964"/>
<path id="Vector_3" d="M36.4191 35.4214H26.7567C25.5707 35.4214 24.6094 36.4753 24.6094 37.7754C24.6094 39.0756 25.5707 40.1294 26.7567 40.1294H36.4191C37.6049 40.1294 38.5664 39.0756 38.5664 37.7754C38.5664 36.4753 37.6051 35.4214 36.4191 35.4214Z" fill="#445964"/>
</g>
</g>
</svg>
