<svg width="218" height="188" viewBox="0 0 218 188" fill="none" xmlns="http://www.w3.org/2000/svg">
<rect width="210" height="180" transform="translate(4)" fill="#CFE5D8"/>
<g filter="url(#filter0_d_31_5726)">
<rect x="4" width="210" height="180" rx="16" fill="#CFE5D8" shape-rendering="crispEdges"/>
<rect x="14" y="10" width="186" height="46" rx="6" fill="#CFE5D8"/>
<rect x="19" y="19" width="28" height="28" rx="6" fill="#F4F6F8"/>
<path d="M32.1605 24.2973C32.5545 23.6884 33.4455 23.6884 33.8395 24.2973L34.7217 25.6605C34.9789 26.0579 35.4795 26.2206 35.9211 26.0502L37.4361 25.4659C38.1128 25.2049 38.8336 25.7286 38.7945 26.4529L38.7069 28.0742C38.6814 28.5469 38.9908 28.9727 39.4482 29.0945L41.0173 29.5123C41.7182 29.6989 41.9935 30.5462 41.5362 31.1092L40.5123 32.3694C40.2138 32.7368 40.2138 33.2632 40.5123 33.6306L41.5362 34.8908C41.9935 35.4538 41.7182 36.3011 41.0173 36.4877L39.4482 36.9055C38.9908 37.0273 38.6814 37.4531 38.7069 37.9257L38.7945 39.5471C38.8336 40.2714 38.1128 40.7951 37.4361 40.5341L35.9211 39.9498C35.4795 39.7794 34.9789 39.9421 34.7217 40.3395L33.8395 41.7027C33.4455 42.3116 32.5545 42.3116 32.1605 41.7027L31.2783 40.3395C31.0211 39.9421 30.5205 39.7794 30.0789 39.9498L28.5639 40.5341C27.8872 40.7951 27.1664 40.2714 27.2055 39.5471L27.2931 37.9257C27.3186 37.4531 27.0092 37.0273 26.5518 36.9055L24.9827 36.4877C24.2818 36.3011 24.0065 35.4538 24.4638 34.8908L25.4877 33.6306C25.7862 33.2632 25.7862 32.7368 25.4877 32.3694L24.4638 31.1092C24.0065 30.5462 24.2818 29.6989 24.9827 29.5123L26.5518 29.0945C27.0092 28.9727 27.3186 28.5469 27.2931 28.0742L27.2055 26.4529C27.1664 25.7286 27.8872 25.2049 28.5639 25.4659L30.0789 26.0502C30.5205 26.2206 31.0211 26.0579 31.2783 25.6605L32.1605 24.2973Z" fill="#0ECC8D"/>
<path d="M27.462 35V31.088H28.368L29.388 33.032L29.772 33.896H29.796C29.78 33.688 29.758 33.456 29.73 33.2C29.702 32.944 29.688 32.7 29.688 32.468V31.088H30.528V35H29.622L28.602 33.05L28.218 32.198H28.194C28.214 32.414 28.236 32.646 28.26 32.894C28.288 33.142 28.302 33.382 28.302 33.614V35H27.462ZM32.7122 35.072C32.4282 35.072 32.1722 35.01 31.9442 34.886C31.7162 34.762 31.5362 34.584 31.4042 34.352C31.2722 34.12 31.2062 33.84 31.2062 33.512C31.2062 33.188 31.2722 32.91 31.4042 32.678C31.5402 32.446 31.7162 32.268 31.9322 32.144C32.1482 32.016 32.3742 31.952 32.6102 31.952C32.8942 31.952 33.1282 32.016 33.3122 32.144C33.5002 32.268 33.6402 32.438 33.7322 32.654C33.8282 32.866 33.8762 33.108 33.8762 33.38C33.8762 33.456 33.8722 33.532 33.8642 33.608C33.8562 33.68 33.8482 33.734 33.8402 33.77H32.0582C32.0982 33.986 32.1882 34.146 32.3282 34.25C32.4682 34.35 32.6362 34.4 32.8322 34.4C33.0442 34.4 33.2582 34.334 33.4742 34.202L33.7682 34.736C33.6162 34.84 33.4462 34.922 33.2582 34.982C33.0702 35.042 32.8882 35.072 32.7122 35.072ZM32.0522 33.188H33.1262C33.1262 33.024 33.0862 32.89 33.0062 32.786C32.9302 32.678 32.8042 32.624 32.6282 32.624C32.4922 32.624 32.3702 32.672 32.2622 32.768C32.1542 32.86 32.0842 33 32.0522 33.188ZM34.9485 35L34.2045 32.024H35.0805L35.3685 33.404C35.3925 33.552 35.4145 33.698 35.4345 33.842C35.4545 33.986 35.4765 34.134 35.5005 34.286H35.5245C35.5525 34.134 35.5785 33.984 35.6025 33.836C35.6305 33.688 35.6625 33.544 35.6985 33.404L36.0285 32.024H36.7905L37.1265 33.404C37.1625 33.552 37.1945 33.698 37.2225 33.842C37.2545 33.986 37.2845 34.134 37.3125 34.286H37.3365C37.3645 34.134 37.3865 33.986 37.4025 33.842C37.4225 33.698 37.4465 33.552 37.4745 33.404L37.7565 32.024H38.5725L37.8585 35H36.8265L36.5565 33.812C36.5285 33.672 36.5005 33.532 36.4725 33.392C36.4485 33.252 36.4225 33.102 36.3945 32.942H36.3705C36.3425 33.102 36.3165 33.252 36.2925 33.392C36.2725 33.532 36.2485 33.672 36.2205 33.812L35.9565 35H34.9485Z" fill="#CFE5D8"/>
<path d="M53.996 29V21.152H55.424L57.872 25.568L58.676 27.236H58.724C58.692 26.836 58.652 26.4 58.604 25.928C58.564 25.456 58.544 25 58.544 24.56V21.152H59.876V29H58.448L56 24.584L55.196 22.916H55.148C55.18 23.332 55.216 23.768 55.256 24.224C55.304 24.68 55.328 25.128 55.328 25.568V29H53.996ZM64.271 29.144C63.727 29.144 63.235 29.024 62.795 28.784C62.355 28.536 62.007 28.184 61.751 27.728C61.495 27.264 61.367 26.708 61.367 26.06C61.367 25.42 61.495 24.868 61.751 24.404C62.015 23.94 62.355 23.584 62.771 23.336C63.187 23.088 63.623 22.964 64.079 22.964C64.615 22.964 65.063 23.084 65.423 23.324C65.783 23.556 66.055 23.884 66.239 24.308C66.423 24.724 66.515 25.208 66.515 25.76C66.515 26.048 66.495 26.272 66.455 26.432H62.711C62.775 26.952 62.963 27.356 63.275 27.644C63.587 27.932 63.979 28.076 64.451 28.076C64.707 28.076 64.943 28.04 65.159 27.968C65.383 27.888 65.603 27.78 65.819 27.644L66.287 28.508C66.007 28.692 65.695 28.844 65.351 28.964C65.007 29.084 64.647 29.144 64.271 29.144ZM62.699 25.496H65.315C65.315 25.04 65.215 24.684 65.015 24.428C64.815 24.164 64.515 24.032 64.115 24.032C63.771 24.032 63.463 24.16 63.191 24.416C62.927 24.664 62.763 25.024 62.699 25.496ZM68.805 29L67.245 23.108H68.637L69.345 26.168C69.409 26.448 69.461 26.728 69.501 27.008C69.549 27.288 69.601 27.572 69.657 27.86H69.705C69.761 27.572 69.817 27.288 69.873 27.008C69.937 26.72 70.005 26.44 70.077 26.168L70.845 23.108H72.105L72.885 26.168C72.957 26.448 73.025 26.728 73.089 27.008C73.153 27.288 73.217 27.572 73.281 27.86H73.329C73.385 27.572 73.437 27.288 73.485 27.008C73.533 26.728 73.585 26.448 73.641 26.168L74.349 23.108H75.645L74.145 29H72.501L71.817 26.252C71.753 25.972 71.693 25.696 71.637 25.424C71.581 25.144 71.521 24.848 71.457 24.536H71.409C71.353 24.848 71.297 25.144 71.241 25.424C71.185 25.704 71.125 25.984 71.061 26.264L70.389 29H68.805ZM79.2593 29.144C78.7153 29.144 78.2233 29.024 77.7833 28.784C77.3433 28.536 76.9953 28.184 76.7393 27.728C76.4833 27.264 76.3553 26.708 76.3553 26.06C76.3553 25.42 76.4833 24.868 76.7393 24.404C77.0033 23.94 77.3433 23.584 77.7593 23.336C78.1753 23.088 78.6113 22.964 79.0673 22.964C79.6033 22.964 80.0513 23.084 80.4113 23.324C80.7713 23.556 81.0433 23.884 81.2273 24.308C81.4113 24.724 81.5033 25.208 81.5033 25.76C81.5033 26.048 81.4833 26.272 81.4433 26.432H77.6993C77.7633 26.952 77.9513 27.356 78.2633 27.644C78.5753 27.932 78.9673 28.076 79.4393 28.076C79.6953 28.076 79.9313 28.04 80.1473 27.968C80.3713 27.888 80.5913 27.78 80.8073 27.644L81.2753 28.508C80.9953 28.692 80.6833 28.844 80.3393 28.964C79.9953 29.084 79.6353 29.144 79.2593 29.144ZM77.6873 25.496H80.3033C80.3033 25.04 80.2033 24.684 80.0033 24.428C79.8033 24.164 79.5033 24.032 79.1033 24.032C78.7593 24.032 78.4513 24.16 78.1793 24.416C77.9153 24.664 77.7513 25.024 77.6873 25.496ZM84.4653 29.144C84.0653 29.144 83.6653 29.068 83.2653 28.916C82.8653 28.756 82.5213 28.56 82.2333 28.328L82.8813 27.44C83.1453 27.64 83.4093 27.8 83.6733 27.92C83.9373 28.04 84.2173 28.1 84.5133 28.1C84.8333 28.1 85.0693 28.032 85.2213 27.896C85.3733 27.76 85.4493 27.592 85.4493 27.392C85.4493 27.224 85.3853 27.088 85.2573 26.984C85.1373 26.872 84.9813 26.776 84.7893 26.696C84.5973 26.608 84.3973 26.524 84.1893 26.444C83.9333 26.348 83.6773 26.232 83.4213 26.096C83.1733 25.952 82.9693 25.772 82.8093 25.556C82.6493 25.332 82.5693 25.056 82.5693 24.728C82.5693 24.208 82.7613 23.784 83.1453 23.456C83.5293 23.128 84.0493 22.964 84.7053 22.964C85.1213 22.964 85.4933 23.036 85.8213 23.18C86.1493 23.324 86.4333 23.488 86.6733 23.672L86.0373 24.512C85.8293 24.36 85.6173 24.24 85.4013 24.152C85.1933 24.056 84.9733 24.008 84.7413 24.008C84.4453 24.008 84.2253 24.072 84.0813 24.2C83.9373 24.32 83.8653 24.472 83.8653 24.656C83.8653 24.888 83.9853 25.064 84.2253 25.184C84.4653 25.304 84.7453 25.42 85.0653 25.532C85.3373 25.628 85.6013 25.748 85.8573 25.892C86.1133 26.028 86.3253 26.208 86.4933 26.432C86.6693 26.656 86.7573 26.952 86.7573 27.32C86.7573 27.824 86.5613 28.256 86.1693 28.616C85.7773 28.968 85.2093 29.144 84.4653 29.144ZM89.8309 29.144C89.1509 29.144 88.6669 28.948 88.3789 28.556C88.0989 28.156 87.9589 27.64 87.9589 27.008V24.2H87.1189V23.168L88.0309 23.108L88.1989 21.5H89.3509V23.108H90.8509V24.2H89.3509V27.008C89.3509 27.696 89.6269 28.04 90.1789 28.04C90.2829 28.04 90.3909 28.028 90.5029 28.004C90.6149 27.972 90.7109 27.94 90.7909 27.908L91.0309 28.928C90.8709 28.984 90.6869 29.032 90.4789 29.072C90.2789 29.12 90.0629 29.144 89.8309 29.144ZM95.9212 29.144C95.4092 29.144 94.9892 28.984 94.6612 28.664C94.3412 28.344 94.1812 27.928 94.1812 27.416C94.1812 26.784 94.4572 26.296 95.0092 25.952C95.5612 25.6 96.4412 25.36 97.6492 25.232C97.6412 24.92 97.5572 24.652 97.3972 24.428C97.2452 24.196 96.9692 24.08 96.5692 24.08C96.2812 24.08 95.9972 24.136 95.7172 24.248C95.4452 24.36 95.1772 24.496 94.9132 24.656L94.4092 23.732C94.7372 23.524 95.1052 23.344 95.5132 23.192C95.9292 23.04 96.3692 22.964 96.8332 22.964C97.5692 22.964 98.1172 23.184 98.4772 23.624C98.8452 24.056 99.0292 24.684 99.0292 25.508V29H97.8892L97.7932 28.352H97.7452C97.4812 28.576 97.1972 28.764 96.8932 28.916C96.5972 29.068 96.2732 29.144 95.9212 29.144ZM96.3652 28.064C96.6052 28.064 96.8212 28.008 97.0132 27.896C97.2132 27.776 97.4252 27.616 97.6492 27.416V26.096C96.8492 26.2 96.2932 26.356 95.9812 26.564C95.6692 26.764 95.5132 27.012 95.5132 27.308C95.5132 27.572 95.5932 27.764 95.7532 27.884C95.9132 28.004 96.1172 28.064 96.3652 28.064ZM100.681 29V23.108H101.821L101.917 23.9H101.965C102.229 23.644 102.517 23.424 102.829 23.24C103.141 23.056 103.497 22.964 103.897 22.964C104.529 22.964 104.989 23.168 105.277 23.576C105.565 23.984 105.709 24.56 105.709 25.304V29H104.329V25.484C104.329 24.996 104.257 24.652 104.113 24.452C103.969 24.252 103.733 24.152 103.405 24.152C103.149 24.152 102.921 24.216 102.721 24.344C102.529 24.464 102.309 24.644 102.061 24.884V29H100.681ZM109.46 29.144C108.724 29.144 108.136 28.872 107.696 28.328C107.256 27.784 107.036 27.028 107.036 26.06C107.036 25.42 107.152 24.868 107.384 24.404C107.624 23.94 107.936 23.584 108.32 23.336C108.704 23.088 109.108 22.964 109.532 22.964C109.868 22.964 110.152 23.024 110.384 23.144C110.624 23.256 110.856 23.412 111.08 23.612L111.032 22.664V20.528H112.412V29H111.272L111.176 28.364H111.128C110.912 28.58 110.66 28.764 110.372 28.916C110.084 29.068 109.78 29.144 109.46 29.144ZM109.796 28.004C110.236 28.004 110.648 27.784 111.032 27.344V24.596C110.832 24.412 110.632 24.284 110.432 24.212C110.232 24.14 110.032 24.104 109.832 24.104C109.456 24.104 109.132 24.276 108.86 24.62C108.596 24.956 108.464 25.432 108.464 26.048C108.464 26.68 108.58 27.164 108.812 27.5C109.044 27.836 109.372 28.004 109.796 28.004ZM116.691 29V21.152H119.343C119.887 21.152 120.375 21.224 120.807 21.368C121.247 21.512 121.591 21.756 121.839 22.1C122.095 22.436 122.223 22.896 122.223 23.48C122.223 24.08 122.079 24.564 121.791 24.932C121.511 25.3 121.135 25.564 120.663 25.724L122.535 29H120.975L119.283 25.928H118.083V29H116.691ZM118.083 24.824H119.199C119.735 24.824 120.143 24.712 120.423 24.488C120.711 24.256 120.855 23.92 120.855 23.48C120.855 23.032 120.711 22.72 120.423 22.544C120.143 22.36 119.735 22.268 119.199 22.268H118.083V24.824ZM126.076 29.144C125.532 29.144 125.04 29.024 124.6 28.784C124.16 28.536 123.812 28.184 123.556 27.728C123.3 27.264 123.172 26.708 123.172 26.06C123.172 25.42 123.3 24.868 123.556 24.404C123.82 23.94 124.16 23.584 124.576 23.336C124.992 23.088 125.428 22.964 125.884 22.964C126.42 22.964 126.868 23.084 127.228 23.324C127.588 23.556 127.86 23.884 128.044 24.308C128.228 24.724 128.32 25.208 128.32 25.76C128.32 26.048 128.3 26.272 128.26 26.432H124.516C124.58 26.952 124.768 27.356 125.08 27.644C125.392 27.932 125.784 28.076 126.256 28.076C126.512 28.076 126.748 28.04 126.964 27.968C127.188 27.888 127.408 27.78 127.624 27.644L128.092 28.508C127.812 28.692 127.5 28.844 127.156 28.964C126.812 29.084 126.452 29.144 126.076 29.144ZM124.504 25.496H127.12C127.12 25.04 127.02 24.684 126.82 24.428C126.62 24.164 126.32 24.032 125.92 24.032C125.576 24.032 125.268 24.16 124.996 24.416C124.732 24.664 124.568 25.024 124.504 25.496ZM132.098 29.144C131.562 29.144 131.078 29.024 130.646 28.784C130.222 28.536 129.882 28.184 129.626 27.728C129.378 27.264 129.254 26.708 129.254 26.06C129.254 25.404 129.39 24.848 129.662 24.392C129.934 23.928 130.294 23.576 130.742 23.336C131.198 23.088 131.686 22.964 132.206 22.964C132.582 22.964 132.91 23.028 133.19 23.156C133.47 23.284 133.718 23.44 133.934 23.624L133.262 24.524C133.11 24.388 132.954 24.284 132.794 24.212C132.634 24.132 132.462 24.092 132.278 24.092C131.806 24.092 131.418 24.272 131.114 24.632C130.818 24.992 130.67 25.468 130.67 26.06C130.67 26.644 130.814 27.116 131.102 27.476C131.398 27.836 131.778 28.016 132.242 28.016C132.474 28.016 132.69 27.968 132.89 27.872C133.098 27.768 133.286 27.648 133.454 27.512L134.018 28.424C133.746 28.664 133.442 28.844 133.106 28.964C132.77 29.084 132.434 29.144 132.098 29.144ZM137.408 29.144C136.864 29.144 136.372 29.024 135.932 28.784C135.492 28.536 135.144 28.184 134.888 27.728C134.632 27.264 134.504 26.708 134.504 26.06C134.504 25.42 134.632 24.868 134.888 24.404C135.152 23.94 135.492 23.584 135.908 23.336C136.324 23.088 136.76 22.964 137.216 22.964C137.752 22.964 138.2 23.084 138.56 23.324C138.92 23.556 139.192 23.884 139.376 24.308C139.56 24.724 139.652 25.208 139.652 25.76C139.652 26.048 139.632 26.272 139.592 26.432H135.848C135.912 26.952 136.1 27.356 136.412 27.644C136.724 27.932 137.116 28.076 137.588 28.076C137.844 28.076 138.08 28.04 138.296 27.968C138.52 27.888 138.74 27.78 138.956 27.644L139.424 28.508C139.144 28.692 138.832 28.844 138.488 28.964C138.144 29.084 137.784 29.144 137.408 29.144ZM135.836 25.496H138.452C138.452 25.04 138.352 24.684 138.152 24.428C137.952 24.164 137.652 24.032 137.252 24.032C136.908 24.032 136.6 24.16 136.328 24.416C136.064 24.664 135.9 25.024 135.836 25.496ZM140.97 29V23.108H142.11L142.206 23.9H142.254C142.518 23.644 142.806 23.424 143.118 23.24C143.43 23.056 143.786 22.964 144.186 22.964C144.818 22.964 145.278 23.168 145.566 23.576C145.854 23.984 145.998 24.56 145.998 25.304V29H144.618V25.484C144.618 24.996 144.546 24.652 144.402 24.452C144.258 24.252 144.022 24.152 143.694 24.152C143.438 24.152 143.21 24.216 143.01 24.344C142.818 24.464 142.598 24.644 142.35 24.884V29H140.97ZM149.761 29.144C149.081 29.144 148.597 28.948 148.309 28.556C148.029 28.156 147.889 27.64 147.889 27.008V24.2H147.049V23.168L147.961 23.108L148.129 21.5H149.281V23.108H150.781V24.2H149.281V27.008C149.281 27.696 149.557 28.04 150.109 28.04C150.213 28.04 150.321 28.028 150.433 28.004C150.545 27.972 150.641 27.94 150.721 27.908L150.961 28.928C150.801 28.984 150.617 29.032 150.409 29.072C150.209 29.12 149.993 29.144 149.761 29.144Z" fill="#445964"/>
<path d="M53.81 46V40.096H57.212V40.726H54.557V42.724H56.807V43.354H54.557V46H53.81ZM58.1853 46V41.626H58.9233V46H58.1853ZM58.5633 40.726C58.4193 40.726 58.2993 40.684 58.2033 40.6C58.1133 40.51 58.0683 40.39 58.0683 40.24C58.0683 40.096 58.1133 39.979 58.2033 39.889C58.2993 39.799 58.4193 39.754 58.5633 39.754C58.7073 39.754 58.8243 39.799 58.9143 39.889C59.0103 39.979 59.0583 40.096 59.0583 40.24C59.0583 40.39 59.0103 40.51 58.9143 40.6C58.8243 40.684 58.7073 40.726 58.5633 40.726ZM60.4001 46V41.626H61.0121L61.0751 42.256H61.1021C61.3121 42.046 61.5341 41.872 61.7681 41.734C62.0021 41.59 62.2691 41.518 62.5691 41.518C63.0311 41.518 63.3671 41.665 63.5771 41.959C63.7931 42.247 63.9011 42.67 63.9011 43.228V46H63.1631V43.327C63.1631 42.919 63.0971 42.622 62.9651 42.436C62.8331 42.25 62.6231 42.157 62.3351 42.157C62.1131 42.157 61.9121 42.214 61.7321 42.328C61.5581 42.442 61.3601 42.61 61.1381 42.832V46H60.4001ZM66.816 46.108C66.27 46.108 65.832 45.91 65.502 45.514C65.172 45.112 65.007 44.548 65.007 43.822C65.007 43.348 65.094 42.94 65.268 42.598C65.448 42.25 65.682 41.983 65.97 41.797C66.264 41.611 66.576 41.518 66.906 41.518C67.158 41.518 67.377 41.563 67.563 41.653C67.749 41.743 67.938 41.866 68.13 42.022L68.094 41.275V39.592H68.841V46H68.229L68.166 45.487H68.139C67.971 45.655 67.773 45.802 67.545 45.928C67.317 46.048 67.074 46.108 66.816 46.108ZM66.978 45.487C67.362 45.487 67.734 45.286 68.094 44.884V42.598C67.908 42.43 67.728 42.313 67.554 42.247C67.386 42.175 67.212 42.139 67.032 42.139C66.798 42.139 66.585 42.211 66.393 42.355C66.207 42.493 66.057 42.688 65.943 42.94C65.829 43.186 65.772 43.477 65.772 43.813C65.772 44.335 65.877 44.746 66.087 45.046C66.297 45.34 66.594 45.487 66.978 45.487ZM73.4929 46.108C73.0249 46.108 72.6979 45.973 72.5119 45.703C72.3319 45.433 72.2419 45.082 72.2419 44.65V42.229H71.5939V41.671L72.2779 41.626L72.3679 40.402H72.9889V41.626H74.1679V42.229H72.9889V44.659C72.9889 44.929 73.0369 45.139 73.1329 45.289C73.2349 45.433 73.4119 45.505 73.6639 45.505C73.7419 45.505 73.8259 45.493 73.9159 45.469C74.0059 45.439 74.0869 45.412 74.1589 45.388L74.3029 45.946C74.1829 45.988 74.0509 46.024 73.9069 46.054C73.7689 46.09 73.6309 46.108 73.4929 46.108ZM75.1569 46V39.592H75.8949V41.338L75.8679 42.238C76.0779 42.04 76.2969 41.872 76.5249 41.734C76.7589 41.59 77.0259 41.518 77.3259 41.518C77.7879 41.518 78.1239 41.665 78.3339 41.959C78.5499 42.247 78.6579 42.67 78.6579 43.228V46H77.9199V43.327C77.9199 42.919 77.8539 42.622 77.7219 42.436C77.5899 42.25 77.3799 42.157 77.0919 42.157C76.8699 42.157 76.6689 42.214 76.4889 42.328C76.3149 42.442 76.1169 42.61 75.8949 42.832V46H75.1569ZM81.8255 46.108C81.4355 46.108 81.0815 46.018 80.7635 45.838C80.4455 45.652 80.1935 45.388 80.0075 45.046C79.8215 44.704 79.7285 44.296 79.7285 43.822C79.7285 43.342 79.8215 42.931 80.0075 42.589C80.1995 42.247 80.4455 41.983 80.7455 41.797C81.0455 41.611 81.3605 41.518 81.6905 41.518C82.2485 41.518 82.6775 41.704 82.9775 42.076C83.2835 42.448 83.4365 42.946 83.4365 43.57C83.4365 43.648 83.4335 43.726 83.4275 43.804C83.4275 43.876 83.4215 43.939 83.4095 43.993H80.4575C80.4875 44.455 80.6315 44.824 80.8895 45.1C81.1535 45.376 81.4955 45.514 81.9155 45.514C82.1255 45.514 82.3175 45.484 82.4915 45.424C82.6715 45.358 82.8425 45.274 83.0045 45.172L83.2655 45.658C83.0795 45.778 82.8665 45.883 82.6265 45.973C82.3925 46.063 82.1255 46.108 81.8255 46.108ZM80.4485 43.462H82.7885C82.7885 43.018 82.6925 42.682 82.5005 42.454C82.3145 42.22 82.0505 42.103 81.7085 42.103C81.4025 42.103 81.1265 42.223 80.8805 42.463C80.6405 42.697 80.4965 43.03 80.4485 43.462ZM87.1021 46.108C86.8261 46.108 86.6251 46.024 86.4991 45.856C86.3791 45.682 86.3191 45.436 86.3191 45.118V39.592H87.0571V45.172C87.0571 45.286 87.0781 45.37 87.1201 45.424C87.1621 45.472 87.2101 45.496 87.2641 45.496C87.2881 45.496 87.3091 45.496 87.3271 45.496C87.3511 45.49 87.3841 45.484 87.4261 45.478L87.5251 46.036C87.4771 46.06 87.4201 46.078 87.3541 46.09C87.2881 46.102 87.2041 46.108 87.1021 46.108ZM89.621 46.108C89.255 46.108 88.949 46 88.703 45.784C88.463 45.562 88.343 45.256 88.343 44.866C88.343 44.386 88.556 44.02 88.982 43.768C89.414 43.51 90.095 43.33 91.025 43.228C91.025 43.042 90.998 42.865 90.944 42.697C90.896 42.529 90.806 42.394 90.674 42.292C90.548 42.184 90.365 42.13 90.125 42.13C89.873 42.13 89.636 42.178 89.414 42.274C89.192 42.37 88.994 42.478 88.82 42.598L88.532 42.085C88.736 41.953 88.985 41.827 89.279 41.707C89.579 41.581 89.903 41.518 90.251 41.518C90.785 41.518 91.172 41.683 91.412 42.013C91.652 42.337 91.772 42.772 91.772 43.318V46H91.16L91.097 45.478H91.07C90.866 45.646 90.641 45.793 90.395 45.919C90.155 46.045 89.897 46.108 89.621 46.108ZM89.837 45.514C90.047 45.514 90.245 45.463 90.431 45.361C90.617 45.259 90.815 45.115 91.025 44.929V43.714C90.299 43.804 89.789 43.939 89.495 44.119C89.207 44.299 89.063 44.53 89.063 44.812C89.063 45.058 89.138 45.238 89.288 45.352C89.438 45.46 89.621 45.514 89.837 45.514ZM94.4021 46.108C93.9341 46.108 93.6071 45.973 93.4211 45.703C93.2411 45.433 93.1511 45.082 93.1511 44.65V42.229H92.5031V41.671L93.1871 41.626L93.2771 40.402H93.8981V41.626H95.0771V42.229H93.8981V44.659C93.8981 44.929 93.9461 45.139 94.0421 45.289C94.1441 45.433 94.3211 45.505 94.5731 45.505C94.6511 45.505 94.7351 45.493 94.8251 45.469C94.9151 45.439 94.9961 45.412 95.0681 45.388L95.2121 45.946C95.0921 45.988 94.9601 46.024 94.8161 46.054C94.6781 46.09 94.5401 46.108 94.4021 46.108ZM97.7161 46.108C97.3261 46.108 96.9721 46.018 96.6541 45.838C96.3361 45.652 96.0841 45.388 95.8981 45.046C95.7121 44.704 95.6191 44.296 95.6191 43.822C95.6191 43.342 95.7121 42.931 95.8981 42.589C96.0901 42.247 96.3361 41.983 96.6361 41.797C96.9361 41.611 97.2511 41.518 97.5811 41.518C98.1391 41.518 98.5681 41.704 98.8681 42.076C99.1741 42.448 99.3271 42.946 99.3271 43.57C99.3271 43.648 99.3241 43.726 99.3181 43.804C99.3181 43.876 99.3121 43.939 99.3001 43.993H96.3481C96.3781 44.455 96.5221 44.824 96.7801 45.1C97.0441 45.376 97.3861 45.514 97.8061 45.514C98.0161 45.514 98.2081 45.484 98.3821 45.424C98.5621 45.358 98.7331 45.274 98.8951 45.172L99.1561 45.658C98.9701 45.778 98.7571 45.883 98.5171 45.973C98.2831 46.063 98.0161 46.108 97.7161 46.108ZM96.3391 43.462H98.6791C98.6791 43.018 98.5831 42.682 98.3911 42.454C98.2051 42.22 97.9411 42.103 97.5991 42.103C97.2931 42.103 97.0171 42.223 96.7711 42.463C96.5311 42.697 96.3871 43.03 96.3391 43.462ZM101.551 46.108C101.239 46.108 100.942 46.051 100.66 45.937C100.378 45.817 100.132 45.673 99.9219 45.505L100.291 45.01C100.483 45.16 100.681 45.286 100.885 45.388C101.089 45.484 101.32 45.532 101.578 45.532C101.866 45.532 102.082 45.466 102.226 45.334C102.37 45.196 102.442 45.034 102.442 44.848C102.442 44.698 102.391 44.572 102.289 44.47C102.193 44.368 102.067 44.284 101.911 44.218C101.761 44.146 101.605 44.08 101.443 44.02C101.239 43.942 101.038 43.855 100.84 43.759C100.642 43.657 100.48 43.528 100.354 43.372C100.228 43.21 100.165 43.006 100.165 42.76C100.165 42.406 100.297 42.112 100.561 41.878C100.831 41.638 101.203 41.518 101.677 41.518C101.947 41.518 102.199 41.566 102.433 41.662C102.667 41.758 102.868 41.875 103.036 42.013L102.676 42.481C102.526 42.367 102.37 42.274 102.208 42.202C102.046 42.13 101.869 42.094 101.677 42.094C101.401 42.094 101.197 42.157 101.065 42.283C100.939 42.409 100.876 42.556 100.876 42.724C100.876 42.862 100.921 42.976 101.011 43.066C101.101 43.15 101.218 43.225 101.362 43.291C101.506 43.351 101.659 43.414 101.821 43.48C102.031 43.558 102.238 43.648 102.442 43.75C102.646 43.846 102.814 43.978 102.946 44.146C103.084 44.308 103.153 44.527 103.153 44.803C103.153 45.037 103.09 45.253 102.964 45.451C102.844 45.649 102.664 45.808 102.424 45.928C102.19 46.048 101.899 46.108 101.551 46.108ZM105.38 46.108C104.912 46.108 104.585 45.973 104.399 45.703C104.219 45.433 104.129 45.082 104.129 44.65V42.229H103.481V41.671L104.165 41.626L104.255 40.402H104.876V41.626H106.055V42.229H104.876V44.659C104.876 44.929 104.924 45.139 105.02 45.289C105.122 45.433 105.299 45.505 105.551 45.505C105.629 45.505 105.713 45.493 105.803 45.469C105.893 45.439 105.974 45.412 106.046 45.388L106.19 45.946C106.07 45.988 105.938 46.024 105.794 46.054C105.656 46.09 105.518 46.108 105.38 46.108ZM110.123 46.108C109.661 46.108 109.322 45.964 109.106 45.676C108.89 45.382 108.782 44.956 108.782 44.398V41.626H109.529V44.299C109.529 44.707 109.592 45.004 109.718 45.19C109.85 45.376 110.06 45.469 110.348 45.469C110.576 45.469 110.777 45.412 110.951 45.298C111.131 45.178 111.323 44.989 111.527 44.731V41.626H112.265V46H111.653L111.59 45.316H111.563C111.359 45.556 111.143 45.748 110.915 45.892C110.687 46.036 110.423 46.108 110.123 46.108ZM113.741 47.845V41.626H114.353L114.416 42.13H114.443C114.641 41.962 114.857 41.818 115.091 41.698C115.331 41.578 115.58 41.518 115.838 41.518C116.402 41.518 116.831 41.722 117.125 42.13C117.419 42.532 117.566 43.072 117.566 43.75C117.566 44.242 117.476 44.665 117.296 45.019C117.122 45.373 116.891 45.643 116.603 45.829C116.321 46.015 116.012 46.108 115.676 46.108C115.472 46.108 115.268 46.063 115.064 45.973C114.866 45.883 114.665 45.76 114.461 45.604L114.479 46.369V47.845H113.741ZM115.55 45.487C115.91 45.487 116.207 45.334 116.441 45.028C116.681 44.716 116.801 44.29 116.801 43.75C116.801 43.27 116.711 42.883 116.531 42.589C116.357 42.289 116.063 42.139 115.649 42.139C115.463 42.139 115.274 42.19 115.082 42.292C114.896 42.394 114.695 42.541 114.479 42.733V45.028C114.677 45.196 114.869 45.316 115.055 45.388C115.241 45.454 115.406 45.487 115.55 45.487ZM120.227 46.108C119.681 46.108 119.243 45.91 118.913 45.514C118.583 45.112 118.418 44.548 118.418 43.822C118.418 43.348 118.505 42.94 118.679 42.598C118.859 42.25 119.093 41.983 119.381 41.797C119.675 41.611 119.987 41.518 120.317 41.518C120.569 41.518 120.788 41.563 120.974 41.653C121.16 41.743 121.349 41.866 121.541 42.022L121.505 41.275V39.592H122.252V46H121.64L121.577 45.487H121.55C121.382 45.655 121.184 45.802 120.956 45.928C120.728 46.048 120.485 46.108 120.227 46.108ZM120.389 45.487C120.773 45.487 121.145 45.286 121.505 44.884V42.598C121.319 42.43 121.139 42.313 120.965 42.247C120.797 42.175 120.623 42.139 120.443 42.139C120.209 42.139 119.996 42.211 119.804 42.355C119.618 42.493 119.468 42.688 119.354 42.94C119.24 43.186 119.183 43.477 119.183 43.813C119.183 44.335 119.288 44.746 119.498 45.046C119.708 45.34 120.005 45.487 120.389 45.487ZM124.733 46.108C124.367 46.108 124.061 46 123.815 45.784C123.575 45.562 123.455 45.256 123.455 44.866C123.455 44.386 123.668 44.02 124.094 43.768C124.526 43.51 125.207 43.33 126.137 43.228C126.137 43.042 126.11 42.865 126.056 42.697C126.008 42.529 125.918 42.394 125.786 42.292C125.66 42.184 125.477 42.13 125.237 42.13C124.985 42.13 124.748 42.178 124.526 42.274C124.304 42.37 124.106 42.478 123.932 42.598L123.644 42.085C123.848 41.953 124.097 41.827 124.391 41.707C124.691 41.581 125.015 41.518 125.363 41.518C125.897 41.518 126.284 41.683 126.524 42.013C126.764 42.337 126.884 42.772 126.884 43.318V46H126.272L126.209 45.478H126.182C125.978 45.646 125.753 45.793 125.507 45.919C125.267 46.045 125.009 46.108 124.733 46.108ZM124.949 45.514C125.159 45.514 125.357 45.463 125.543 45.361C125.729 45.259 125.927 45.115 126.137 44.929V43.714C125.411 43.804 124.901 43.939 124.607 44.119C124.319 44.299 124.175 44.53 124.175 44.812C124.175 45.058 124.25 45.238 124.4 45.352C124.55 45.46 124.733 45.514 124.949 45.514ZM129.514 46.108C129.046 46.108 128.719 45.973 128.533 45.703C128.353 45.433 128.263 45.082 128.263 44.65V42.229H127.615V41.671L128.299 41.626L128.389 40.402H129.01V41.626H130.189V42.229H129.01V44.659C129.01 44.929 129.058 45.139 129.154 45.289C129.256 45.433 129.433 45.505 129.685 45.505C129.763 45.505 129.847 45.493 129.937 45.469C130.027 45.439 130.108 45.412 130.18 45.388L130.324 45.946C130.204 45.988 130.072 46.024 129.928 46.054C129.79 46.09 129.652 46.108 129.514 46.108ZM132.828 46.108C132.438 46.108 132.084 46.018 131.766 45.838C131.448 45.652 131.196 45.388 131.01 45.046C130.824 44.704 130.731 44.296 130.731 43.822C130.731 43.342 130.824 42.931 131.01 42.589C131.202 42.247 131.448 41.983 131.748 41.797C132.048 41.611 132.363 41.518 132.693 41.518C133.251 41.518 133.68 41.704 133.98 42.076C134.286 42.448 134.439 42.946 134.439 43.57C134.439 43.648 134.436 43.726 134.43 43.804C134.43 43.876 134.424 43.939 134.412 43.993H131.46C131.49 44.455 131.634 44.824 131.892 45.1C132.156 45.376 132.498 45.514 132.918 45.514C133.128 45.514 133.32 45.484 133.494 45.424C133.674 45.358 133.845 45.274 134.007 45.172L134.268 45.658C134.082 45.778 133.869 45.883 133.629 45.973C133.395 46.063 133.128 46.108 132.828 46.108ZM131.451 43.462H133.791C133.791 43.018 133.695 42.682 133.503 42.454C133.317 42.22 133.053 42.103 132.711 42.103C132.405 42.103 132.129 42.223 131.883 42.463C131.643 42.697 131.499 43.03 131.451 43.462Z" fill="#97989D"/>
<rect x="14" y="66" width="186" height="46" rx="6" fill="#FEF6E4"/>
<rect x="19" y="75" width="28" height="28" rx="6" fill="#F4F6F8"/>
<path d="M29.7213 93.4503L32 95.8905C32.2261 96.1259 32.6402 95.9547 32.6402 95.6338V93.4718L34.4491 93.4717C35.4357 93.4717 36.2373 92.6372 36.2373 91.6102L36.2375 83.8615C36.2375 82.8345 35.4358 82 34.4492 82H24.7883C23.8017 82 23 82.8345 23 83.8615V91.5888C23 92.6158 23.8017 93.4503 24.7883 93.4503L29.7213 93.4503ZM27.1109 86.4291L28.7142 86.3007L29.3309 84.7388C29.4542 84.4393 29.8448 84.4393 29.9476 84.7388L30.5643 86.3007L32.1676 86.4291C32.4759 86.4504 32.5994 86.8357 32.3526 87.0495L31.1192 88.1407L31.5098 89.7668C31.5919 90.0664 31.2632 90.3231 30.9959 90.1519L29.6187 89.2746L28.2415 90.1519C27.9743 90.3231 27.666 90.0663 27.7276 89.7668L28.1182 88.1407L26.8848 87.0495C26.6792 86.857 26.8025 86.4506 27.1109 86.4291ZM38.5602 85.1025C38.108 85.1025 37.7381 84.7175 37.7381 84.2467C37.7381 83.776 38.108 83.391 38.5602 83.391H42.1779C42.6301 83.391 43 83.776 43 84.2467C43 84.7175 42.6301 85.1025 42.1779 85.1025H38.5602ZM37.7585 87.6488C37.7585 87.178 38.1285 86.793 38.5807 86.793H41.2529C41.7051 86.793 42.075 87.178 42.075 87.6488C42.075 88.1195 41.7051 88.5046 41.2529 88.5046H38.5602C38.108 88.5046 37.7585 88.1195 37.7585 87.6488ZM37.7585 91.0508C37.7585 90.5801 38.1285 90.195 38.5807 90.195H40.2046C40.6568 90.195 41.0267 90.5801 41.0267 91.0508C41.0267 91.5215 40.6568 91.9066 40.2046 91.9066H38.5601C38.1079 91.9066 37.7585 91.5215 37.7585 91.0508Z" fill="#EEA956"/>
<path d="M53.996 85V77.152H56.468C57.052 77.152 57.572 77.228 58.028 77.38C58.484 77.532 58.844 77.784 59.108 78.136C59.372 78.488 59.504 78.968 59.504 79.576C59.504 80.152 59.372 80.628 59.108 81.004C58.844 81.38 58.488 81.66 58.04 81.844C57.592 82.028 57.084 82.12 56.516 82.12H55.388V85H53.996ZM55.388 81.004H56.408C57.56 81.004 58.136 80.528 58.136 79.576C58.136 79.08 57.984 78.74 57.68 78.556C57.384 78.364 56.944 78.268 56.36 78.268H55.388V81.004ZM63.0028 85.144C62.5148 85.144 62.0588 85.024 61.6348 84.784C61.2108 84.536 60.8668 84.184 60.6028 83.728C60.3388 83.264 60.2068 82.708 60.2068 82.06C60.2068 81.404 60.3388 80.848 60.6028 80.392C60.8668 79.928 61.2108 79.576 61.6348 79.336C62.0588 79.088 62.5148 78.964 63.0028 78.964C63.4988 78.964 63.9588 79.088 64.3828 79.336C64.8068 79.576 65.1508 79.928 65.4148 80.392C65.6788 80.848 65.8108 81.404 65.8108 82.06C65.8108 82.708 65.6788 83.264 65.4148 83.728C65.1508 84.184 64.8068 84.536 64.3828 84.784C63.9588 85.024 63.4988 85.144 63.0028 85.144ZM63.0028 84.016C63.4348 84.016 63.7748 83.836 64.0228 83.476C64.2708 83.116 64.3948 82.644 64.3948 82.06C64.3948 81.468 64.2708 80.992 64.0228 80.632C63.7748 80.272 63.4348 80.092 63.0028 80.092C62.5708 80.092 62.2308 80.272 61.9828 80.632C61.7428 80.992 61.6228 81.468 61.6228 82.06C61.6228 82.644 61.7428 83.116 61.9828 83.476C62.2308 83.836 62.5708 84.016 63.0028 84.016ZM67.1768 87.328V79.108H68.3168L68.4128 79.732H68.4608C68.7088 79.524 68.9848 79.344 69.2888 79.192C69.6008 79.04 69.9168 78.964 70.2368 78.964C70.9728 78.964 71.5408 79.236 71.9408 79.78C72.3488 80.324 72.5528 81.052 72.5528 81.964C72.5528 82.636 72.4328 83.212 72.1928 83.692C71.9528 84.164 71.6408 84.524 71.2568 84.772C70.8808 85.02 70.4728 85.144 70.0328 85.144C69.7768 85.144 69.5208 85.088 69.2648 84.976C69.0088 84.856 68.7608 84.696 68.5208 84.496L68.5568 85.48V87.328H67.1768ZM69.7448 84.004C70.1368 84.004 70.4648 83.832 70.7288 83.488C70.9928 83.144 71.1248 82.64 71.1248 81.976C71.1248 81.384 71.0248 80.924 70.8248 80.596C70.6248 80.268 70.3008 80.104 69.8528 80.104C69.4368 80.104 69.0048 80.324 68.5568 80.764V83.512C68.7728 83.688 68.9808 83.816 69.1808 83.896C69.3808 83.968 69.5688 84.004 69.7448 84.004ZM75.7022 85.144C75.0702 85.144 74.6102 84.94 74.3222 84.532C74.0342 84.124 73.8902 83.548 73.8902 82.804V79.108H75.2702V82.624C75.2702 83.112 75.3422 83.456 75.4862 83.656C75.6302 83.856 75.8622 83.956 76.1822 83.956C76.4382 83.956 76.6622 83.892 76.8542 83.764C77.0542 83.636 77.2662 83.428 77.4902 83.14V79.108H78.8702V85H77.7422L77.6342 84.136H77.5982C77.3422 84.44 77.0622 84.684 76.7582 84.868C76.4542 85.052 76.1022 85.144 75.7022 85.144ZM81.9622 85.144C81.4742 85.144 81.1262 84.996 80.9182 84.7C80.7182 84.404 80.6182 84 80.6182 83.488V76.528H81.9982V83.56C81.9982 83.728 82.0302 83.848 82.0942 83.92C82.1582 83.984 82.2262 84.016 82.2982 84.016C82.3302 84.016 82.3582 84.016 82.3822 84.016C82.4142 84.008 82.4582 84 82.5142 83.992L82.6942 85.024C82.6142 85.056 82.5102 85.084 82.3822 85.108C82.2622 85.132 82.1222 85.144 81.9622 85.144ZM85.304 85.144C84.792 85.144 84.372 84.984 84.044 84.664C83.724 84.344 83.564 83.928 83.564 83.416C83.564 82.784 83.84 82.296 84.392 81.952C84.944 81.6 85.824 81.36 87.032 81.232C87.024 80.92 86.94 80.652 86.78 80.428C86.628 80.196 86.352 80.08 85.952 80.08C85.664 80.08 85.38 80.136 85.1 80.248C84.828 80.36 84.56 80.496 84.296 80.656L83.792 79.732C84.12 79.524 84.488 79.344 84.896 79.192C85.312 79.04 85.752 78.964 86.216 78.964C86.952 78.964 87.5 79.184 87.86 79.624C88.228 80.056 88.412 80.684 88.412 81.508V85H87.272L87.176 84.352H87.128C86.864 84.576 86.58 84.764 86.276 84.916C85.98 85.068 85.656 85.144 85.304 85.144ZM85.748 84.064C85.988 84.064 86.204 84.008 86.396 83.896C86.596 83.776 86.808 83.616 87.032 83.416V82.096C86.232 82.2 85.676 82.356 85.364 82.564C85.052 82.764 84.896 83.012 84.896 83.308C84.896 83.572 84.976 83.764 85.136 83.884C85.296 84.004 85.5 84.064 85.748 84.064ZM90.0635 85V79.108H91.2035L91.2995 80.152H91.3475C91.5555 79.768 91.8075 79.476 92.1035 79.276C92.3995 79.068 92.7035 78.964 93.0155 78.964C93.2955 78.964 93.5195 79.004 93.6875 79.084L93.4475 80.284C93.3435 80.252 93.2475 80.228 93.1595 80.212C93.0715 80.196 92.9635 80.188 92.8355 80.188C92.6035 80.188 92.3595 80.28 92.1035 80.464C91.8475 80.64 91.6275 80.952 91.4435 81.4V85H90.0635ZM99.3544 85.144C98.8664 85.144 98.4104 85.024 97.9864 84.784C97.5624 84.536 97.2184 84.184 96.9544 83.728C96.6904 83.264 96.5584 82.708 96.5584 82.06C96.5584 81.404 96.6904 80.848 96.9544 80.392C97.2184 79.928 97.5624 79.576 97.9864 79.336C98.4104 79.088 98.8664 78.964 99.3544 78.964C99.8504 78.964 100.31 79.088 100.734 79.336C101.158 79.576 101.502 79.928 101.766 80.392C102.03 80.848 102.162 81.404 102.162 82.06C102.162 82.708 102.03 83.264 101.766 83.728C101.502 84.184 101.158 84.536 100.734 84.784C100.31 85.024 99.8504 85.144 99.3544 85.144ZM99.3544 84.016C99.7864 84.016 100.126 83.836 100.374 83.476C100.622 83.116 100.746 82.644 100.746 82.06C100.746 81.468 100.622 80.992 100.374 80.632C100.126 80.272 99.7864 80.092 99.3544 80.092C98.9224 80.092 98.5824 80.272 98.3344 80.632C98.0944 80.992 97.9744 81.468 97.9744 82.06C97.9744 82.644 98.0944 83.116 98.3344 83.476C98.5824 83.836 98.9224 84.016 99.3544 84.016ZM103.721 85V80.2H102.929V79.168L103.721 79.108V78.496C103.721 77.88 103.873 77.376 104.177 76.984C104.481 76.584 104.981 76.384 105.677 76.384C105.885 76.384 106.085 76.404 106.277 76.444C106.469 76.484 106.629 76.532 106.757 76.588L106.493 77.62C106.277 77.524 106.061 77.476 105.845 77.476C105.349 77.476 105.101 77.808 105.101 78.472V79.108H106.253V80.2H105.101V85H103.721ZM111.768 85.144C111.088 85.144 110.604 84.948 110.316 84.556C110.036 84.156 109.896 83.64 109.896 83.008V80.2H109.056V79.168L109.968 79.108L110.136 77.5H111.288V79.108H112.788V80.2H111.288V83.008C111.288 83.696 111.564 84.04 112.116 84.04C112.22 84.04 112.328 84.028 112.44 84.004C112.552 83.972 112.648 83.94 112.728 83.908L112.968 84.928C112.808 84.984 112.624 85.032 112.416 85.072C112.216 85.12 112 85.144 111.768 85.144ZM114.028 85V76.528H115.408V78.712L115.36 79.852C115.608 79.62 115.884 79.416 116.188 79.24C116.492 79.056 116.844 78.964 117.244 78.964C117.876 78.964 118.336 79.168 118.624 79.576C118.912 79.984 119.056 80.56 119.056 81.304V85H117.676V81.484C117.676 80.996 117.604 80.652 117.46 80.452C117.316 80.252 117.08 80.152 116.752 80.152C116.496 80.152 116.268 80.216 116.068 80.344C115.876 80.464 115.656 80.644 115.408 80.884V85H114.028ZM123.24 85.144C122.696 85.144 122.204 85.024 121.764 84.784C121.324 84.536 120.976 84.184 120.72 83.728C120.464 83.264 120.336 82.708 120.336 82.06C120.336 81.42 120.464 80.868 120.72 80.404C120.984 79.94 121.324 79.584 121.74 79.336C122.156 79.088 122.592 78.964 123.048 78.964C123.584 78.964 124.032 79.084 124.392 79.324C124.752 79.556 125.024 79.884 125.208 80.308C125.392 80.724 125.484 81.208 125.484 81.76C125.484 82.048 125.464 82.272 125.424 82.432H121.68C121.744 82.952 121.932 83.356 122.244 83.644C122.556 83.932 122.948 84.076 123.42 84.076C123.676 84.076 123.912 84.04 124.128 83.968C124.352 83.888 124.572 83.78 124.788 83.644L125.256 84.508C124.976 84.692 124.664 84.844 124.32 84.964C123.976 85.084 123.616 85.144 123.24 85.144ZM121.668 81.496H124.284C124.284 81.04 124.184 80.684 123.984 80.428C123.784 80.164 123.484 80.032 123.084 80.032C122.74 80.032 122.432 80.16 122.16 80.416C121.896 80.664 121.732 81.024 121.668 81.496ZM131.268 85.144C130.532 85.144 129.944 84.872 129.504 84.328C129.064 83.784 128.844 83.028 128.844 82.06C128.844 81.42 128.96 80.868 129.192 80.404C129.432 79.94 129.744 79.584 130.128 79.336C130.512 79.088 130.916 78.964 131.34 78.964C131.676 78.964 131.96 79.024 132.192 79.144C132.432 79.256 132.664 79.412 132.888 79.612L132.84 78.664V76.528H134.22V85H133.08L132.984 84.364H132.936C132.72 84.58 132.468 84.764 132.18 84.916C131.892 85.068 131.588 85.144 131.268 85.144ZM131.604 84.004C132.044 84.004 132.456 83.784 132.84 83.344V80.596C132.64 80.412 132.44 80.284 132.24 80.212C132.04 80.14 131.84 80.104 131.64 80.104C131.264 80.104 130.94 80.276 130.668 80.62C130.404 80.956 130.272 81.432 130.272 82.048C130.272 82.68 130.388 83.164 130.62 83.5C130.852 83.836 131.18 84.004 131.604 84.004ZM137.406 85.144C136.894 85.144 136.474 84.984 136.146 84.664C135.826 84.344 135.666 83.928 135.666 83.416C135.666 82.784 135.942 82.296 136.494 81.952C137.046 81.6 137.926 81.36 139.134 81.232C139.126 80.92 139.042 80.652 138.882 80.428C138.73 80.196 138.454 80.08 138.054 80.08C137.766 80.08 137.482 80.136 137.202 80.248C136.93 80.36 136.662 80.496 136.398 80.656L135.894 79.732C136.222 79.524 136.59 79.344 136.998 79.192C137.414 79.04 137.854 78.964 138.318 78.964C139.054 78.964 139.602 79.184 139.962 79.624C140.33 80.056 140.514 80.684 140.514 81.508V85H139.374L139.278 84.352H139.23C138.966 84.576 138.682 84.764 138.378 84.916C138.082 85.068 137.758 85.144 137.406 85.144ZM137.85 84.064C138.09 84.064 138.306 84.008 138.498 83.896C138.698 83.776 138.91 83.616 139.134 83.416V82.096C138.334 82.2 137.778 82.356 137.466 82.564C137.154 82.764 136.998 83.012 136.998 83.308C136.998 83.572 137.078 83.764 137.238 83.884C137.398 84.004 137.602 84.064 137.85 84.064ZM142.561 87.424C142.401 87.424 142.261 87.412 142.141 87.388C142.021 87.364 141.905 87.336 141.793 87.304L142.045 86.224C142.101 86.24 142.165 86.256 142.237 86.272C142.317 86.296 142.393 86.308 142.465 86.308C142.777 86.308 143.025 86.212 143.209 86.02C143.401 85.836 143.545 85.596 143.641 85.3L143.749 84.928L141.433 79.108H142.837L143.857 82C143.945 82.256 144.029 82.528 144.109 82.816C144.197 83.096 144.285 83.376 144.373 83.656H144.421C144.493 83.384 144.565 83.108 144.637 82.828C144.717 82.54 144.793 82.264 144.865 82L145.753 79.108H147.085L144.949 85.264C144.701 85.928 144.401 86.452 144.049 86.836C143.697 87.228 143.201 87.424 142.561 87.424Z" fill="#445964"/>
<path d="M55.448 102.108C55.034 102.108 54.65 102.03 54.296 101.874C53.942 101.712 53.636 101.499 53.378 101.235L53.828 100.713C54.038 100.935 54.284 101.115 54.566 101.253C54.854 101.385 55.151 101.451 55.457 101.451C55.847 101.451 56.15 101.364 56.366 101.19C56.582 101.01 56.69 100.776 56.69 100.488C56.69 100.284 56.645 100.122 56.555 100.002C56.471 99.882 56.354 99.78 56.204 99.696C56.06 99.612 55.895 99.528 55.709 99.444L54.863 99.075C54.677 98.997 54.491 98.895 54.305 98.769C54.125 98.643 53.972 98.481 53.846 98.283C53.726 98.085 53.666 97.842 53.666 97.554C53.666 97.254 53.744 96.987 53.9 96.753C54.062 96.513 54.284 96.327 54.566 96.195C54.848 96.057 55.166 95.988 55.52 95.988C55.874 95.988 56.201 96.057 56.501 96.195C56.801 96.327 57.056 96.501 57.266 96.717L56.861 97.203C56.681 97.029 56.48 96.894 56.258 96.798C56.042 96.696 55.796 96.645 55.52 96.645C55.19 96.645 54.923 96.723 54.719 96.879C54.521 97.035 54.422 97.245 54.422 97.509C54.422 97.695 54.47 97.851 54.566 97.977C54.668 98.097 54.794 98.196 54.944 98.274C55.094 98.352 55.247 98.424 55.403 98.49L56.24 98.85C56.468 98.946 56.672 99.063 56.852 99.201C57.038 99.333 57.185 99.498 57.293 99.696C57.401 99.888 57.455 100.131 57.455 100.425C57.455 100.737 57.374 101.022 57.212 101.28C57.05 101.532 56.819 101.733 56.519 101.883C56.219 102.033 55.862 102.108 55.448 102.108ZM58.5456 102V95.592H59.2836V97.338L59.2566 98.238C59.4666 98.04 59.6856 97.872 59.9136 97.734C60.1476 97.59 60.4146 97.518 60.7146 97.518C61.1766 97.518 61.5126 97.665 61.7226 97.959C61.9386 98.247 62.0466 98.67 62.0466 99.228V102H61.3086V99.327C61.3086 98.919 61.2426 98.622 61.1106 98.436C60.9786 98.25 60.7686 98.157 60.4806 98.157C60.2586 98.157 60.0576 98.214 59.8776 98.328C59.7036 98.442 59.5056 98.61 59.2836 98.832V102H58.5456ZM65.1421 102.108C64.7881 102.108 64.4551 102.018 64.1431 101.838C63.8371 101.658 63.5881 101.397 63.3961 101.055C63.2101 100.713 63.1171 100.302 63.1171 99.822C63.1171 99.33 63.2101 98.913 63.3961 98.571C63.5881 98.229 63.8371 97.968 64.1431 97.788C64.4551 97.608 64.7881 97.518 65.1421 97.518C65.5021 97.518 65.8351 97.608 66.1411 97.788C66.4471 97.968 66.6931 98.229 66.8791 98.571C67.0711 98.913 67.1671 99.33 67.1671 99.822C67.1671 100.302 67.0711 100.713 66.8791 101.055C66.6931 101.397 66.4471 101.658 66.1411 101.838C65.8351 102.018 65.5021 102.108 65.1421 102.108ZM65.1421 101.496C65.5201 101.496 65.8231 101.343 66.0511 101.037C66.2851 100.725 66.4021 100.32 66.4021 99.822C66.4021 99.318 66.2851 98.91 66.0511 98.598C65.8231 98.286 65.5201 98.13 65.1421 98.13C64.7701 98.13 64.4671 98.286 64.2331 98.598C63.9991 98.91 63.8821 99.318 63.8821 99.822C63.8821 100.32 63.9991 100.725 64.2331 101.037C64.4671 101.343 64.7701 101.496 65.1421 101.496ZM69.5466 102.108C69.0786 102.108 68.7516 101.973 68.5656 101.703C68.3856 101.433 68.2956 101.082 68.2956 100.65V98.229H67.6476V97.671L68.3316 97.626L68.4216 96.402H69.0426V97.626H70.2216V98.229H69.0426V100.659C69.0426 100.929 69.0906 101.139 69.1866 101.289C69.2886 101.433 69.4656 101.505 69.7176 101.505C69.7956 101.505 69.8796 101.493 69.9696 101.469C70.0596 101.439 70.1406 101.412 70.2126 101.388L70.3566 101.946C70.2366 101.988 70.1046 102.024 69.9606 102.054C69.8226 102.09 69.6846 102.108 69.5466 102.108ZM72.2658 102.108C71.9538 102.108 71.6568 102.051 71.3748 101.937C71.0928 101.817 70.8468 101.673 70.6368 101.505L71.0058 101.01C71.1978 101.16 71.3958 101.286 71.5998 101.388C71.8038 101.484 72.0348 101.532 72.2928 101.532C72.5808 101.532 72.7968 101.466 72.9408 101.334C73.0848 101.196 73.1568 101.034 73.1568 100.848C73.1568 100.698 73.1058 100.572 73.0038 100.47C72.9078 100.368 72.7818 100.284 72.6258 100.218C72.4758 100.146 72.3198 100.08 72.1578 100.02C71.9538 99.942 71.7528 99.855 71.5548 99.759C71.3568 99.657 71.1948 99.528 71.0688 99.372C70.9428 99.21 70.8798 99.006 70.8798 98.76C70.8798 98.406 71.0118 98.112 71.2758 97.878C71.5458 97.638 71.9178 97.518 72.3918 97.518C72.6618 97.518 72.9138 97.566 73.1478 97.662C73.3818 97.758 73.5828 97.875 73.7508 98.013L73.3908 98.481C73.2408 98.367 73.0848 98.274 72.9228 98.202C72.7608 98.13 72.5838 98.094 72.3918 98.094C72.1158 98.094 71.9118 98.157 71.7798 98.283C71.6538 98.409 71.5908 98.556 71.5908 98.724C71.5908 98.862 71.6358 98.976 71.7258 99.066C71.8158 99.15 71.9328 99.225 72.0768 99.291C72.2208 99.351 72.3738 99.414 72.5358 99.48C72.7458 99.558 72.9528 99.648 73.1568 99.75C73.3608 99.846 73.5288 99.978 73.6608 100.146C73.7988 100.308 73.8678 100.527 73.8678 100.803C73.8678 101.037 73.8048 101.253 73.6788 101.451C73.5588 101.649 73.3788 101.808 73.1388 101.928C72.9048 102.048 72.6138 102.108 72.2658 102.108ZM76.821 102V98.229H76.227V97.671L76.821 97.626V96.933C76.821 96.489 76.923 96.138 77.127 95.88C77.337 95.616 77.661 95.484 78.099 95.484C78.237 95.484 78.369 95.499 78.495 95.529C78.621 95.553 78.732 95.586 78.828 95.628L78.666 96.195C78.504 96.123 78.339 96.087 78.171 96.087C77.763 96.087 77.559 96.369 77.559 96.933V97.626H78.486V98.229H77.559V102H76.821ZM81.0081 102.108C80.6181 102.108 80.2641 102.018 79.9461 101.838C79.6281 101.652 79.3761 101.388 79.1901 101.046C79.0041 100.704 78.9111 100.296 78.9111 99.822C78.9111 99.342 79.0041 98.931 79.1901 98.589C79.3821 98.247 79.6281 97.983 79.9281 97.797C80.2281 97.611 80.5431 97.518 80.8731 97.518C81.4311 97.518 81.8601 97.704 82.1601 98.076C82.4661 98.448 82.6191 98.946 82.6191 99.57C82.6191 99.648 82.6161 99.726 82.6101 99.804C82.6101 99.876 82.6041 99.939 82.5921 99.993H79.6401C79.6701 100.455 79.8141 100.824 80.0721 101.1C80.3361 101.376 80.6781 101.514 81.0981 101.514C81.3081 101.514 81.5001 101.484 81.6741 101.424C81.8541 101.358 82.0251 101.274 82.1871 101.172L82.4481 101.658C82.2621 101.778 82.0491 101.883 81.8091 101.973C81.5751 102.063 81.3081 102.108 81.0081 102.108ZM79.6311 99.462H81.9711C81.9711 99.018 81.8751 98.682 81.6831 98.454C81.4971 98.22 81.2331 98.103 80.8911 98.103C80.5851 98.103 80.3091 98.223 80.0631 98.463C79.8231 98.697 79.6791 99.03 79.6311 99.462ZM84.5849 102.108C84.2189 102.108 83.9129 102 83.6669 101.784C83.4269 101.562 83.3069 101.256 83.3069 100.866C83.3069 100.386 83.5199 100.02 83.9459 99.768C84.3779 99.51 85.0589 99.33 85.9889 99.228C85.9889 99.042 85.9619 98.865 85.9079 98.697C85.8599 98.529 85.7699 98.394 85.6379 98.292C85.5119 98.184 85.3289 98.13 85.0889 98.13C84.8369 98.13 84.5999 98.178 84.3779 98.274C84.1559 98.37 83.9579 98.478 83.7839 98.598L83.4959 98.085C83.6999 97.953 83.9489 97.827 84.2429 97.707C84.5429 97.581 84.8669 97.518 85.2149 97.518C85.7489 97.518 86.1359 97.683 86.3759 98.013C86.6159 98.337 86.7359 98.772 86.7359 99.318V102H86.1239L86.0609 101.478H86.0339C85.8299 101.646 85.6049 101.793 85.3589 101.919C85.1189 102.045 84.8609 102.108 84.5849 102.108ZM84.8009 101.514C85.0109 101.514 85.2089 101.463 85.3949 101.361C85.5809 101.259 85.7789 101.115 85.9889 100.929V99.714C85.2629 99.804 84.7529 99.939 84.4589 100.119C84.1709 100.299 84.0269 100.53 84.0269 100.812C84.0269 101.058 84.1019 101.238 84.2519 101.352C84.4019 101.46 84.5849 101.514 84.8009 101.514ZM89.366 102.108C88.898 102.108 88.571 101.973 88.385 101.703C88.205 101.433 88.115 101.082 88.115 100.65V98.229H87.467V97.671L88.151 97.626L88.241 96.402H88.862V97.626H90.041V98.229H88.862V100.659C88.862 100.929 88.91 101.139 89.006 101.289C89.108 101.433 89.285 101.505 89.537 101.505C89.615 101.505 89.699 101.493 89.789 101.469C89.879 101.439 89.96 101.412 90.032 101.388L90.176 101.946C90.056 101.988 89.924 102.024 89.78 102.054C89.642 102.09 89.504 102.108 89.366 102.108ZM92.308 102.108C91.846 102.108 91.507 101.964 91.291 101.676C91.075 101.382 90.967 100.956 90.967 100.398V97.626H91.714V100.299C91.714 100.707 91.777 101.004 91.903 101.19C92.035 101.376 92.245 101.469 92.533 101.469C92.761 101.469 92.962 101.412 93.136 101.298C93.316 101.178 93.508 100.989 93.712 100.731V97.626H94.45V102H93.838L93.775 101.316H93.748C93.544 101.556 93.328 101.748 93.1 101.892C92.872 102.036 92.608 102.108 92.308 102.108ZM95.9255 102V97.626H96.5375L96.6005 98.418H96.6275C96.7775 98.142 96.9605 97.923 97.1765 97.761C97.3925 97.599 97.6235 97.518 97.8695 97.518C98.0435 97.518 98.1995 97.548 98.3375 97.608L98.1935 98.256C98.1215 98.232 98.0555 98.214 97.9955 98.202C97.9355 98.19 97.8605 98.184 97.7705 98.184C97.5845 98.184 97.3895 98.259 97.1855 98.409C96.9875 98.559 96.8135 98.82 96.6635 99.192V102H95.9255ZM100.731 102.108C100.341 102.108 99.9867 102.018 99.6687 101.838C99.3507 101.652 99.0987 101.388 98.9127 101.046C98.7267 100.704 98.6337 100.296 98.6337 99.822C98.6337 99.342 98.7267 98.931 98.9127 98.589C99.1047 98.247 99.3507 97.983 99.6507 97.797C99.9507 97.611 100.266 97.518 100.596 97.518C101.154 97.518 101.583 97.704 101.883 98.076C102.189 98.448 102.342 98.946 102.342 99.57C102.342 99.648 102.339 99.726 102.333 99.804C102.333 99.876 102.327 99.939 102.315 99.993H99.3627C99.3927 100.455 99.5367 100.824 99.7947 101.1C100.059 101.376 100.401 101.514 100.821 101.514C101.031 101.514 101.223 101.484 101.397 101.424C101.577 101.358 101.748 101.274 101.91 101.172L102.171 101.658C101.985 101.778 101.772 101.883 101.532 101.973C101.298 102.063 101.031 102.108 100.731 102.108ZM99.3537 99.462H101.694C101.694 99.018 101.598 98.682 101.406 98.454C101.22 98.22 100.956 98.103 100.614 98.103C100.308 98.103 100.032 98.223 99.7857 98.463C99.5457 98.697 99.4017 99.03 99.3537 99.462ZM104.917 102.108C104.371 102.108 103.933 101.91 103.603 101.514C103.273 101.112 103.108 100.548 103.108 99.822C103.108 99.348 103.195 98.94 103.369 98.598C103.549 98.25 103.783 97.983 104.071 97.797C104.365 97.611 104.677 97.518 105.007 97.518C105.259 97.518 105.478 97.563 105.664 97.653C105.85 97.743 106.039 97.866 106.231 98.022L106.195 97.275V95.592H106.942V102H106.33L106.267 101.487H106.24C106.072 101.655 105.874 101.802 105.646 101.928C105.418 102.048 105.175 102.108 104.917 102.108ZM105.079 101.487C105.463 101.487 105.835 101.286 106.195 100.884V98.598C106.009 98.43 105.829 98.313 105.655 98.247C105.487 98.175 105.313 98.139 105.133 98.139C104.899 98.139 104.686 98.211 104.494 98.355C104.308 98.493 104.158 98.688 104.044 98.94C103.93 99.186 103.873 99.477 103.873 99.813C103.873 100.335 103.978 100.746 104.188 101.046C104.398 101.34 104.695 101.487 105.079 101.487ZM111.594 102.108C111.126 102.108 110.799 101.973 110.613 101.703C110.433 101.433 110.343 101.082 110.343 100.65V98.229H109.695V97.671L110.379 97.626L110.469 96.402H111.09V97.626H112.269V98.229H111.09V100.659C111.09 100.929 111.138 101.139 111.234 101.289C111.336 101.433 111.513 101.505 111.765 101.505C111.843 101.505 111.927 101.493 112.017 101.469C112.107 101.439 112.188 101.412 112.26 101.388L112.404 101.946C112.284 101.988 112.152 102.024 112.008 102.054C111.87 102.09 111.732 102.108 111.594 102.108ZM114.835 102.108C114.481 102.108 114.148 102.018 113.836 101.838C113.53 101.658 113.281 101.397 113.089 101.055C112.903 100.713 112.81 100.302 112.81 99.822C112.81 99.33 112.903 98.913 113.089 98.571C113.281 98.229 113.53 97.968 113.836 97.788C114.148 97.608 114.481 97.518 114.835 97.518C115.195 97.518 115.528 97.608 115.834 97.788C116.14 97.968 116.386 98.229 116.572 98.571C116.764 98.913 116.86 99.33 116.86 99.822C116.86 100.302 116.764 100.713 116.572 101.055C116.386 101.397 116.14 101.658 115.834 101.838C115.528 102.018 115.195 102.108 114.835 102.108ZM114.835 101.496C115.213 101.496 115.516 101.343 115.744 101.037C115.978 100.725 116.095 100.32 116.095 99.822C116.095 99.318 115.978 98.91 115.744 98.598C115.516 98.286 115.213 98.13 114.835 98.13C114.463 98.13 114.16 98.286 113.926 98.598C113.692 98.91 113.575 99.318 113.575 99.822C113.575 100.32 113.692 100.725 113.926 101.037C114.16 101.343 114.463 101.496 114.835 101.496ZM119.506 102.108C118.96 102.108 118.522 101.91 118.192 101.514C117.862 101.112 117.697 100.548 117.697 99.822C117.697 99.348 117.784 98.94 117.958 98.598C118.138 98.25 118.372 97.983 118.66 97.797C118.954 97.611 119.266 97.518 119.596 97.518C119.848 97.518 120.067 97.563 120.253 97.653C120.439 97.743 120.628 97.866 120.82 98.022L120.784 97.275V95.592H121.531V102H120.919L120.856 101.487H120.829C120.661 101.655 120.463 101.802 120.235 101.928C120.007 102.048 119.764 102.108 119.506 102.108ZM119.668 101.487C120.052 101.487 120.424 101.286 120.784 100.884V98.598C120.598 98.43 120.418 98.313 120.244 98.247C120.076 98.175 119.902 98.139 119.722 98.139C119.488 98.139 119.275 98.211 119.083 98.355C118.897 98.493 118.747 98.688 118.633 98.94C118.519 99.186 118.462 99.477 118.462 99.813C118.462 100.335 118.567 100.746 118.777 101.046C118.987 101.34 119.284 101.487 119.668 101.487ZM124.013 102.108C123.647 102.108 123.341 102 123.095 101.784C122.855 101.562 122.735 101.256 122.735 100.866C122.735 100.386 122.948 100.02 123.374 99.768C123.806 99.51 124.487 99.33 125.417 99.228C125.417 99.042 125.39 98.865 125.336 98.697C125.288 98.529 125.198 98.394 125.066 98.292C124.94 98.184 124.757 98.13 124.517 98.13C124.265 98.13 124.028 98.178 123.806 98.274C123.584 98.37 123.386 98.478 123.212 98.598L122.924 98.085C123.128 97.953 123.377 97.827 123.671 97.707C123.971 97.581 124.295 97.518 124.643 97.518C125.177 97.518 125.564 97.683 125.804 98.013C126.044 98.337 126.164 98.772 126.164 99.318V102H125.552L125.489 101.478H125.462C125.258 101.646 125.033 101.793 124.787 101.919C124.547 102.045 124.289 102.108 124.013 102.108ZM124.229 101.514C124.439 101.514 124.637 101.463 124.823 101.361C125.009 101.259 125.207 101.115 125.417 100.929V99.714C124.691 99.804 124.181 99.939 123.887 100.119C123.599 100.299 123.455 100.53 123.455 100.812C123.455 101.058 123.53 101.238 123.68 101.352C123.83 101.46 124.013 101.514 124.229 101.514ZM127.612 103.881C127.516 103.881 127.423 103.872 127.333 103.854C127.249 103.836 127.171 103.815 127.099 103.791L127.243 103.206C127.291 103.218 127.345 103.23 127.405 103.242C127.465 103.26 127.522 103.269 127.576 103.269C127.822 103.269 128.026 103.179 128.188 102.999C128.35 102.825 128.476 102.603 128.566 102.333L128.665 102.009L126.91 97.626H127.675L128.566 100.047C128.632 100.233 128.701 100.434 128.773 100.65C128.851 100.866 128.923 101.076 128.989 101.28H129.025C129.091 101.082 129.154 100.875 129.214 100.659C129.274 100.443 129.334 100.239 129.394 100.047L130.177 97.626H130.897L129.25 102.36C129.148 102.648 129.025 102.906 128.881 103.134C128.743 103.362 128.569 103.542 128.359 103.674C128.155 103.812 127.906 103.881 127.612 103.881ZM135.478 102.108C135.274 102.108 135.061 102.06 134.839 101.964C134.623 101.862 134.419 101.724 134.227 101.55H134.2L134.137 102H133.543V95.592H134.281V97.338L134.263 98.13C134.461 97.956 134.677 97.812 134.911 97.698C135.151 97.578 135.391 97.518 135.631 97.518C136.201 97.518 136.633 97.719 136.927 98.121C137.221 98.523 137.368 99.063 137.368 99.741C137.368 100.239 137.278 100.665 137.098 101.019C136.924 101.373 136.693 101.643 136.405 101.829C136.123 102.015 135.814 102.108 135.478 102.108ZM135.352 101.487C135.712 101.487 136.009 101.334 136.243 101.028C136.483 100.716 136.603 100.29 136.603 99.75C136.603 99.27 136.513 98.883 136.333 98.589C136.159 98.289 135.865 98.139 135.451 98.139C135.265 98.139 135.076 98.19 134.884 98.292C134.692 98.394 134.491 98.541 134.281 98.733V101.028C134.473 101.196 134.662 101.316 134.848 101.388C135.04 101.454 135.208 101.487 135.352 101.487ZM138.554 103.881C138.458 103.881 138.365 103.872 138.275 103.854C138.191 103.836 138.113 103.815 138.041 103.791L138.185 103.206C138.233 103.218 138.287 103.23 138.347 103.242C138.407 103.26 138.464 103.269 138.518 103.269C138.764 103.269 138.968 103.179 139.13 102.999C139.292 102.825 139.418 102.603 139.508 102.333L139.607 102.009L137.852 97.626H138.617L139.508 100.047C139.574 100.233 139.643 100.434 139.715 100.65C139.793 100.866 139.865 101.076 139.931 101.28H139.967C140.033 101.082 140.096 100.875 140.156 100.659C140.216 100.443 140.276 100.239 140.336 100.047L141.119 97.626H141.839L140.192 102.36C140.09 102.648 139.967 102.906 139.823 103.134C139.685 103.362 139.511 103.542 139.301 103.674C139.097 103.812 138.848 103.881 138.554 103.881ZM146.213 102.108C145.829 102.108 145.481 102.018 145.169 101.838C144.857 101.658 144.611 101.397 144.431 101.055C144.251 100.713 144.161 100.302 144.161 99.822C144.161 99.33 144.257 98.913 144.449 98.571C144.647 98.229 144.905 97.968 145.223 97.788C145.547 97.608 145.895 97.518 146.267 97.518C146.555 97.518 146.801 97.569 147.005 97.671C147.215 97.773 147.395 97.893 147.545 98.031L147.167 98.517C147.041 98.403 146.906 98.31 146.762 98.238C146.624 98.166 146.468 98.13 146.294 98.13C146.03 98.13 145.793 98.202 145.583 98.346C145.379 98.484 145.217 98.682 145.097 98.94C144.983 99.192 144.926 99.486 144.926 99.822C144.926 100.32 145.049 100.725 145.295 101.037C145.547 101.343 145.874 101.496 146.276 101.496C146.48 101.496 146.669 101.454 146.843 101.37C147.017 101.28 147.17 101.175 147.302 101.055L147.626 101.55C147.428 101.724 147.209 101.862 146.969 101.964C146.729 102.06 146.477 102.108 146.213 102.108ZM149.868 102.108C149.406 102.108 149.067 101.964 148.851 101.676C148.635 101.382 148.527 100.956 148.527 100.398V97.626H149.274V100.299C149.274 100.707 149.337 101.004 149.463 101.19C149.595 101.376 149.805 101.469 150.093 101.469C150.321 101.469 150.522 101.412 150.696 101.298C150.876 101.178 151.068 100.989 151.272 100.731V97.626H152.01V102H151.398L151.335 101.316H151.308C151.104 101.556 150.888 101.748 150.66 101.892C150.432 102.036 150.168 102.108 149.868 102.108ZM153.485 102V97.626H154.097L154.16 98.418H154.187C154.337 98.142 154.52 97.923 154.736 97.761C154.952 97.599 155.183 97.518 155.429 97.518C155.603 97.518 155.759 97.548 155.897 97.608L155.753 98.256C155.681 98.232 155.615 98.214 155.555 98.202C155.495 98.19 155.42 98.184 155.33 98.184C155.144 98.184 154.949 98.259 154.745 98.409C154.547 98.559 154.373 98.82 154.223 99.192V102H153.485ZM157.393 102.108C157.027 102.108 156.721 102 156.475 101.784C156.235 101.562 156.115 101.256 156.115 100.866C156.115 100.386 156.328 100.02 156.754 99.768C157.186 99.51 157.867 99.33 158.797 99.228C158.797 99.042 158.77 98.865 158.716 98.697C158.668 98.529 158.578 98.394 158.446 98.292C158.32 98.184 158.137 98.13 157.897 98.13C157.645 98.13 157.408 98.178 157.186 98.274C156.964 98.37 156.766 98.478 156.592 98.598L156.304 98.085C156.508 97.953 156.757 97.827 157.051 97.707C157.351 97.581 157.675 97.518 158.023 97.518C158.557 97.518 158.944 97.683 159.184 98.013C159.424 98.337 159.544 98.772 159.544 99.318V102H158.932L158.869 101.478H158.842C158.638 101.646 158.413 101.793 158.167 101.919C157.927 102.045 157.669 102.108 157.393 102.108ZM157.609 101.514C157.819 101.514 158.017 101.463 158.203 101.361C158.389 101.259 158.587 101.115 158.797 100.929V99.714C158.071 99.804 157.561 99.939 157.267 100.119C156.979 100.299 156.835 100.53 156.835 100.812C156.835 101.058 156.91 101.238 157.06 101.352C157.21 101.46 157.393 101.514 157.609 101.514ZM162.175 102.108C161.707 102.108 161.38 101.973 161.194 101.703C161.014 101.433 160.924 101.082 160.924 100.65V98.229H160.276V97.671L160.96 97.626L161.05 96.402H161.671V97.626H162.85V98.229H161.671V100.659C161.671 100.929 161.719 101.139 161.815 101.289C161.917 101.433 162.094 101.505 162.346 101.505C162.424 101.505 162.508 101.493 162.598 101.469C162.688 101.439 162.769 101.412 162.841 101.388L162.985 101.946C162.865 101.988 162.733 102.024 162.589 102.054C162.451 102.09 162.313 102.108 162.175 102.108ZM165.417 102.108C165.063 102.108 164.73 102.018 164.418 101.838C164.112 101.658 163.863 101.397 163.671 101.055C163.485 100.713 163.392 100.302 163.392 99.822C163.392 99.33 163.485 98.913 163.671 98.571C163.863 98.229 164.112 97.968 164.418 97.788C164.73 97.608 165.063 97.518 165.417 97.518C165.777 97.518 166.11 97.608 166.416 97.788C166.722 97.968 166.968 98.229 167.154 98.571C167.346 98.913 167.442 99.33 167.442 99.822C167.442 100.302 167.346 100.713 167.154 101.055C166.968 101.397 166.722 101.658 166.416 101.838C166.11 102.018 165.777 102.108 165.417 102.108ZM165.417 101.496C165.795 101.496 166.098 101.343 166.326 101.037C166.56 100.725 166.677 100.32 166.677 99.822C166.677 99.318 166.56 98.91 166.326 98.598C166.098 98.286 165.795 98.13 165.417 98.13C165.045 98.13 164.742 98.286 164.508 98.598C164.274 98.91 164.157 99.318 164.157 99.822C164.157 100.32 164.274 100.725 164.508 101.037C164.742 101.343 165.045 101.496 165.417 101.496ZM168.593 102V97.626H169.205L169.268 98.418H169.295C169.445 98.142 169.628 97.923 169.844 97.761C170.06 97.599 170.291 97.518 170.537 97.518C170.711 97.518 170.867 97.548 171.005 97.608L170.861 98.256C170.789 98.232 170.723 98.214 170.663 98.202C170.603 98.19 170.528 98.184 170.438 98.184C170.252 98.184 170.057 98.259 169.853 98.409C169.655 98.559 169.481 98.82 169.331 99.192V102H168.593ZM172.821 102.108C172.509 102.108 172.212 102.051 171.93 101.937C171.648 101.817 171.402 101.673 171.192 101.505L171.561 101.01C171.753 101.16 171.951 101.286 172.155 101.388C172.359 101.484 172.59 101.532 172.848 101.532C173.136 101.532 173.352 101.466 173.496 101.334C173.64 101.196 173.712 101.034 173.712 100.848C173.712 100.698 173.661 100.572 173.559 100.47C173.463 100.368 173.337 100.284 173.181 100.218C173.031 100.146 172.875 100.08 172.713 100.02C172.509 99.942 172.308 99.855 172.11 99.759C171.912 99.657 171.75 99.528 171.624 99.372C171.498 99.21 171.435 99.006 171.435 98.76C171.435 98.406 171.567 98.112 171.831 97.878C172.101 97.638 172.473 97.518 172.947 97.518C173.217 97.518 173.469 97.566 173.703 97.662C173.937 97.758 174.138 97.875 174.306 98.013L173.946 98.481C173.796 98.367 173.64 98.274 173.478 98.202C173.316 98.13 173.139 98.094 172.947 98.094C172.671 98.094 172.467 98.157 172.335 98.283C172.209 98.409 172.146 98.556 172.146 98.724C172.146 98.862 172.191 98.976 172.281 99.066C172.371 99.15 172.488 99.225 172.632 99.291C172.776 99.351 172.929 99.414 173.091 99.48C173.301 99.558 173.508 99.648 173.712 99.75C173.916 99.846 174.084 99.978 174.216 100.146C174.354 100.308 174.423 100.527 174.423 100.803C174.423 101.037 174.36 101.253 174.234 101.451C174.114 101.649 173.934 101.808 173.694 101.928C173.46 102.048 173.169 102.108 172.821 102.108Z" fill="#97989D"/>
<rect x="14" y="122" width="186" height="48" rx="6" fill="#CFE5D8"/>
<rect x="19" y="132" width="28" height="28" rx="6" fill="#F4F6F8"/>
<path d="M36 141C36 138.791 34.2089 137 32 137C29.7911 137 28 138.791 28 141C28 143.209 29.7911 145 32 145C34.2089 145 36 143.209 36 141Z" fill="#FF6934"/>
<path d="M35 145C34.2357 145.578 33.0266 146 32 146C30.9535 146 29.7718 145.599 29 145C24.102 146.179 23.9105 150.234 24.0085 153.979C24.0247 154.598 24.3724 155 25 155L34 155V152C34 150.981 34.307 150 36 150L39.5 150C39.5 147 37.5 145 35 145Z" fill="#FF6934"/>
<path d="M36 153H42M42 153L40.5 151.5M42 153L40.5 154.5" stroke="#FF6934" stroke-linecap="round" stroke-linejoin="round"/>
<path d="M53.996 141V133.152H58.736V134.328H55.388V136.548H58.244V137.724H55.388V141H53.996ZM62.2177 141.144C61.7297 141.144 61.2737 141.024 60.8497 140.784C60.4257 140.536 60.0817 140.184 59.8177 139.728C59.5537 139.264 59.4217 138.708 59.4217 138.06C59.4217 137.404 59.5537 136.848 59.8177 136.392C60.0817 135.928 60.4257 135.576 60.8497 135.336C61.2737 135.088 61.7297 134.964 62.2177 134.964C62.7137 134.964 63.1737 135.088 63.5977 135.336C64.0217 135.576 64.3657 135.928 64.6297 136.392C64.8937 136.848 65.0257 137.404 65.0257 138.06C65.0257 138.708 64.8937 139.264 64.6297 139.728C64.3657 140.184 64.0217 140.536 63.5977 140.784C63.1737 141.024 62.7137 141.144 62.2177 141.144ZM62.2177 140.016C62.6497 140.016 62.9897 139.836 63.2377 139.476C63.4857 139.116 63.6097 138.644 63.6097 138.06C63.6097 137.468 63.4857 136.992 63.2377 136.632C62.9897 136.272 62.6497 136.092 62.2177 136.092C61.7857 136.092 61.4457 136.272 61.1977 136.632C60.9577 136.992 60.8377 137.468 60.8377 138.06C60.8377 138.644 60.9577 139.116 61.1977 139.476C61.4457 139.836 61.7857 140.016 62.2177 140.016ZM67.7356 141.144C67.2476 141.144 66.8996 140.996 66.6916 140.7C66.4916 140.404 66.3916 140 66.3916 139.488V132.528H67.7716V139.56C67.7716 139.728 67.8036 139.848 67.8676 139.92C67.9316 139.984 67.9996 140.016 68.0716 140.016C68.1036 140.016 68.1316 140.016 68.1556 140.016C68.1876 140.008 68.2316 140 68.2876 139.992L68.4676 141.024C68.3876 141.056 68.2836 141.084 68.1556 141.108C68.0356 141.132 67.8956 141.144 67.7356 141.144ZM70.9934 141.144C70.5054 141.144 70.1574 140.996 69.9494 140.7C69.7494 140.404 69.6494 140 69.6494 139.488V132.528H71.0294V139.56C71.0294 139.728 71.0614 139.848 71.1254 139.92C71.1894 139.984 71.2574 140.016 71.3294 140.016C71.3614 140.016 71.3894 140.016 71.4134 140.016C71.4454 140.008 71.4894 140 71.5454 139.992L71.7254 141.024C71.6454 141.056 71.5414 141.084 71.4134 141.108C71.2934 141.132 71.1534 141.144 70.9934 141.144ZM75.3193 141.144C74.8313 141.144 74.3753 141.024 73.9513 140.784C73.5273 140.536 73.1833 140.184 72.9193 139.728C72.6553 139.264 72.5233 138.708 72.5233 138.06C72.5233 137.404 72.6553 136.848 72.9193 136.392C73.1833 135.928 73.5273 135.576 73.9513 135.336C74.3753 135.088 74.8313 134.964 75.3193 134.964C75.8153 134.964 76.2753 135.088 76.6993 135.336C77.1233 135.576 77.4673 135.928 77.7313 136.392C77.9953 136.848 78.1273 137.404 78.1273 138.06C78.1273 138.708 77.9953 139.264 77.7313 139.728C77.4673 140.184 77.1233 140.536 76.6993 140.784C76.2753 141.024 75.8153 141.144 75.3193 141.144ZM75.3193 140.016C75.7513 140.016 76.0913 139.836 76.3393 139.476C76.5873 139.116 76.7113 138.644 76.7113 138.06C76.7113 137.468 76.5873 136.992 76.3393 136.632C76.0913 136.272 75.7513 136.092 75.3193 136.092C74.8873 136.092 74.5473 136.272 74.2993 136.632C74.0593 136.992 73.9393 137.468 73.9393 138.06C73.9393 138.644 74.0593 139.116 74.2993 139.476C74.5473 139.836 74.8873 140.016 75.3193 140.016ZM80.3949 141L78.8349 135.108H80.2269L80.9349 138.168C80.9989 138.448 81.0509 138.728 81.0909 139.008C81.1389 139.288 81.1909 139.572 81.2469 139.86H81.2949C81.3509 139.572 81.4069 139.288 81.4629 139.008C81.5269 138.72 81.5949 138.44 81.6669 138.168L82.4349 135.108H83.6949L84.4749 138.168C84.5469 138.448 84.6149 138.728 84.6789 139.008C84.7429 139.288 84.8069 139.572 84.8709 139.86H84.9189C84.9749 139.572 85.0269 139.288 85.0749 139.008C85.1229 138.728 85.1749 138.448 85.2309 138.168L85.9389 135.108H87.2349L85.7349 141H84.0909L83.4069 138.252C83.3429 137.972 83.2829 137.696 83.2269 137.424C83.1709 137.144 83.1109 136.848 83.0469 136.536H82.9989C82.9429 136.848 82.8869 137.144 82.8309 137.424C82.7749 137.704 82.7149 137.984 82.6509 138.264L81.9789 141H80.3949ZM88.3994 141V135.108H89.7794V141H88.3994ZM89.0954 134.076C88.8474 134.076 88.6474 134.004 88.4954 133.86C88.3434 133.716 88.2674 133.524 88.2674 133.284C88.2674 133.052 88.3434 132.864 88.4954 132.72C88.6474 132.576 88.8474 132.504 89.0954 132.504C89.3434 132.504 89.5434 132.576 89.6954 132.72C89.8474 132.864 89.9234 133.052 89.9234 133.284C89.9234 133.524 89.8474 133.716 89.6954 133.86C89.5434 134.004 89.3434 134.076 89.0954 134.076ZM91.5401 141V135.108H92.6801L92.7761 135.9H92.8241C93.0881 135.644 93.3761 135.424 93.6881 135.24C94.0001 135.056 94.3561 134.964 94.7561 134.964C95.3881 134.964 95.8481 135.168 96.1361 135.576C96.4241 135.984 96.5681 136.56 96.5681 137.304V141H95.1881V137.484C95.1881 136.996 95.1161 136.652 94.9721 136.452C94.8281 136.252 94.5921 136.152 94.2641 136.152C94.0081 136.152 93.7801 136.216 93.5801 136.344C93.3881 136.464 93.1681 136.644 92.9201 136.884V141H91.5401ZM100.307 143.604C99.8429 143.604 99.4229 143.548 99.0469 143.436C98.6789 143.324 98.3869 143.152 98.1709 142.92C97.9629 142.696 97.8589 142.412 97.8589 142.068C97.8589 141.58 98.1389 141.16 98.6989 140.808V140.76C98.5469 140.664 98.4189 140.536 98.3149 140.376C98.2189 140.216 98.1709 140.016 98.1709 139.776C98.1709 139.544 98.2349 139.336 98.3629 139.152C98.4989 138.96 98.6509 138.804 98.8189 138.684V138.636C98.6189 138.484 98.4389 138.272 98.2789 138C98.1269 137.728 98.0509 137.42 98.0509 137.076C98.0509 136.62 98.1589 136.236 98.3749 135.924C98.5909 135.612 98.8749 135.376 99.2269 135.216C99.5869 135.048 99.9709 134.964 100.379 134.964C100.539 134.964 100.691 134.98 100.835 135.012C100.987 135.036 101.123 135.068 101.243 135.108H103.355V136.128H102.275C102.371 136.24 102.451 136.384 102.515 136.56C102.579 136.728 102.611 136.916 102.611 137.124C102.611 137.556 102.511 137.924 102.311 138.228C102.111 138.524 101.843 138.748 101.507 138.9C101.171 139.052 100.795 139.128 100.379 139.128C100.251 139.128 100.119 139.116 99.9829 139.092C99.8469 139.068 99.7109 139.028 99.5749 138.972C99.4869 139.052 99.4149 139.132 99.3589 139.212C99.3109 139.292 99.2869 139.4 99.2869 139.536C99.2869 139.704 99.3549 139.836 99.4909 139.932C99.6349 140.028 99.8869 140.076 100.247 140.076H101.291C102.003 140.076 102.539 140.192 102.899 140.424C103.267 140.648 103.451 141.016 103.451 141.528C103.451 141.912 103.323 142.26 103.067 142.572C102.811 142.892 102.447 143.144 101.975 143.328C101.503 143.512 100.947 143.604 100.307 143.604ZM100.379 138.264C100.659 138.264 100.899 138.16 101.099 137.952C101.299 137.744 101.399 137.452 101.399 137.076C101.399 136.708 101.299 136.424 101.099 136.224C100.907 136.016 100.667 135.912 100.379 135.912C100.091 135.912 99.8469 136.012 99.6469 136.212C99.4469 136.412 99.3469 136.7 99.3469 137.076C99.3469 137.452 99.4469 137.744 99.6469 137.952C99.8469 138.16 100.091 138.264 100.379 138.264ZM100.523 142.704C100.995 142.704 101.379 142.608 101.675 142.416C101.971 142.224 102.119 142.004 102.119 141.756C102.119 141.524 102.027 141.368 101.843 141.288C101.667 141.208 101.411 141.168 101.075 141.168H100.271C99.9509 141.168 99.6829 141.14 99.4669 141.084C99.1629 141.316 99.0109 141.576 99.0109 141.864C99.0109 142.128 99.1469 142.332 99.4189 142.476C99.6909 142.628 100.059 142.704 100.523 142.704Z" fill="#445964"/>
<rect x="108" y="128" width="22" height="20" rx="2" fill="#FF6934"/>
<path d="M114.342 141V140.397C114.876 139.881 115.335 139.422 115.719 139.02C116.109 138.612 116.409 138.243 116.619 137.913C116.829 137.577 116.934 137.265 116.934 136.977C116.934 136.677 116.853 136.437 116.691 136.257C116.529 136.077 116.295 135.987 115.989 135.987C115.767 135.987 115.563 136.05 115.377 136.176C115.197 136.302 115.029 136.452 114.873 136.626L114.297 136.05C114.561 135.768 114.834 135.552 115.116 135.402C115.398 135.246 115.734 135.168 116.124 135.168C116.676 135.168 117.114 135.327 117.438 135.645C117.768 135.963 117.933 136.389 117.933 136.923C117.933 137.259 117.837 137.604 117.645 137.958C117.459 138.306 117.207 138.663 116.889 139.029C116.577 139.395 116.232 139.779 115.854 140.181C116.004 140.169 116.166 140.157 116.34 140.145C116.514 140.127 116.67 140.118 116.808 140.118H118.212V141H114.342ZM119.802 138.723H121.305V137.427C121.305 137.259 121.311 137.061 121.323 136.833C121.335 136.605 121.344 136.407 121.35 136.239H121.314C121.242 136.389 121.167 136.536 121.089 136.68C121.011 136.824 120.93 136.974 120.846 137.13L119.802 138.723ZM121.305 141V139.524H118.776V138.822L121.044 135.276H122.277V138.723H122.997V139.524H122.277V141H121.305Z" fill="#CFE5D8"/>
<path d="M53.81 160V154.096H57.212V154.726H54.557V156.58H56.798V157.219H54.557V159.361H57.302V160H53.81ZM57.5908 160L59.0218 157.714L57.6988 155.626H58.4998L59.0848 156.589C59.1508 156.703 59.2198 156.823 59.2918 156.949C59.3638 157.075 59.4388 157.198 59.5168 157.318H59.5528C59.6188 157.198 59.6848 157.075 59.7508 156.949C59.8168 156.823 59.8828 156.703 59.9488 156.589L60.4798 155.626H61.2538L59.9308 157.795L61.3528 160H60.5518L59.9128 158.983C59.8348 158.851 59.7568 158.719 59.6788 158.587C59.6008 158.455 59.5198 158.326 59.4358 158.2H59.3998C59.3218 158.326 59.2468 158.455 59.1748 158.587C59.1028 158.713 59.0308 158.845 58.9588 158.983L58.3648 160H57.5908ZM62.2194 161.845V155.626H62.8314L62.8944 156.13H62.9214C63.1194 155.962 63.3354 155.818 63.5694 155.698C63.8094 155.578 64.0584 155.518 64.3164 155.518C64.8804 155.518 65.3094 155.722 65.6034 156.13C65.8974 156.532 66.0444 157.072 66.0444 157.75C66.0444 158.242 65.9544 158.665 65.7744 159.019C65.6004 159.373 65.3694 159.643 65.0814 159.829C64.7994 160.015 64.4904 160.108 64.1544 160.108C63.9504 160.108 63.7464 160.063 63.5424 159.973C63.3444 159.883 63.1434 159.76 62.9394 159.604L62.9574 160.369V161.845H62.2194ZM64.0284 159.487C64.3884 159.487 64.6854 159.334 64.9194 159.028C65.1594 158.716 65.2794 158.29 65.2794 157.75C65.2794 157.27 65.1894 156.883 65.0094 156.589C64.8354 156.289 64.5414 156.139 64.1274 156.139C63.9414 156.139 63.7524 156.19 63.5604 156.292C63.3744 156.394 63.1734 156.541 62.9574 156.733V159.028C63.1554 159.196 63.3474 159.316 63.5334 159.388C63.7194 159.454 63.8844 159.487 64.0284 159.487ZM67.9946 160.108C67.7186 160.108 67.5176 160.024 67.3916 159.856C67.2716 159.682 67.2116 159.436 67.2116 159.118V153.592H67.9496V159.172C67.9496 159.286 67.9706 159.37 68.0126 159.424C68.0546 159.472 68.1026 159.496 68.1566 159.496C68.1806 159.496 68.2016 159.496 68.2196 159.496C68.2436 159.49 68.2766 159.484 68.3186 159.478L68.4176 160.036C68.3696 160.06 68.3126 160.078 68.2466 160.09C68.1806 160.102 68.0966 160.108 67.9946 160.108ZM71.2066 160.108C70.8526 160.108 70.5196 160.018 70.2076 159.838C69.9016 159.658 69.6526 159.397 69.4606 159.055C69.2746 158.713 69.1816 158.302 69.1816 157.822C69.1816 157.33 69.2746 156.913 69.4606 156.571C69.6526 156.229 69.9016 155.968 70.2076 155.788C70.5196 155.608 70.8526 155.518 71.2066 155.518C71.5666 155.518 71.8996 155.608 72.2056 155.788C72.5116 155.968 72.7576 156.229 72.9436 156.571C73.1356 156.913 73.2316 157.33 73.2316 157.822C73.2316 158.302 73.1356 158.713 72.9436 159.055C72.7576 159.397 72.5116 159.658 72.2056 159.838C71.8996 160.018 71.5666 160.108 71.2066 160.108ZM71.2066 159.496C71.5846 159.496 71.8876 159.343 72.1156 159.037C72.3496 158.725 72.4666 158.32 72.4666 157.822C72.4666 157.318 72.3496 156.91 72.1156 156.598C71.8876 156.286 71.5846 156.13 71.2066 156.13C70.8346 156.13 70.5316 156.286 70.2976 156.598C70.0636 156.91 69.9466 157.318 69.9466 157.822C69.9466 158.32 70.0636 158.725 70.2976 159.037C70.5316 159.343 70.8346 159.496 71.2066 159.496ZM74.3835 160V155.626H74.9955L75.0585 156.418H75.0855C75.2355 156.142 75.4185 155.923 75.6345 155.761C75.8505 155.599 76.0815 155.518 76.3275 155.518C76.5015 155.518 76.6575 155.548 76.7955 155.608L76.6515 156.256C76.5795 156.232 76.5135 156.214 76.4535 156.202C76.3935 156.19 76.3185 156.184 76.2285 156.184C76.0425 156.184 75.8475 156.259 75.6435 156.409C75.4455 156.559 75.2715 156.82 75.1215 157.192V160H74.3835ZM79.1887 160.108C78.7987 160.108 78.4447 160.018 78.1267 159.838C77.8087 159.652 77.5567 159.388 77.3707 159.046C77.1847 158.704 77.0917 158.296 77.0917 157.822C77.0917 157.342 77.1847 156.931 77.3707 156.589C77.5627 156.247 77.8087 155.983 78.1087 155.797C78.4087 155.611 78.7237 155.518 79.0537 155.518C79.6117 155.518 80.0407 155.704 80.3407 156.076C80.6467 156.448 80.7997 156.946 80.7997 157.57C80.7997 157.648 80.7967 157.726 80.7907 157.804C80.7907 157.876 80.7847 157.939 80.7727 157.993H77.8207C77.8507 158.455 77.9947 158.824 78.2527 159.1C78.5167 159.376 78.8587 159.514 79.2787 159.514C79.4887 159.514 79.6807 159.484 79.8547 159.424C80.0347 159.358 80.2057 159.274 80.3677 159.172L80.6287 159.658C80.4427 159.778 80.2297 159.883 79.9897 159.973C79.7557 160.063 79.4887 160.108 79.1887 160.108ZM77.8117 157.462H80.1517C80.1517 157.018 80.0557 156.682 79.8637 156.454C79.6777 156.22 79.4137 156.103 79.0717 156.103C78.7657 156.103 78.4897 156.223 78.2437 156.463C78.0037 156.697 77.8597 157.03 77.8117 157.462ZM83.8083 160V156.229H83.2143V155.671L83.8083 155.626V154.933C83.8083 154.489 83.9103 154.138 84.1143 153.88C84.3243 153.616 84.6483 153.484 85.0863 153.484C85.2243 153.484 85.3563 153.499 85.4823 153.529C85.6083 153.553 85.7193 153.586 85.8153 153.628L85.6533 154.195C85.4913 154.123 85.3263 154.087 85.1583 154.087C84.7503 154.087 84.5463 154.369 84.5463 154.933V155.626H85.4733V156.229H84.5463V160H83.8083ZM86.3103 160V155.626H86.9223L86.9853 156.418H87.0123C87.1623 156.142 87.3453 155.923 87.5613 155.761C87.7773 155.599 88.0083 155.518 88.2543 155.518C88.4283 155.518 88.5843 155.548 88.7223 155.608L88.5783 156.256C88.5063 156.232 88.4403 156.214 88.3803 156.202C88.3203 156.19 88.2453 156.184 88.1553 156.184C87.9693 156.184 87.7743 156.259 87.5703 156.409C87.3723 156.559 87.1983 156.82 87.0483 157.192V160H86.3103ZM91.0435 160.108C90.6895 160.108 90.3565 160.018 90.0445 159.838C89.7385 159.658 89.4895 159.397 89.2975 159.055C89.1115 158.713 89.0185 158.302 89.0185 157.822C89.0185 157.33 89.1115 156.913 89.2975 156.571C89.4895 156.229 89.7385 155.968 90.0445 155.788C90.3565 155.608 90.6895 155.518 91.0435 155.518C91.4035 155.518 91.7365 155.608 92.0425 155.788C92.3485 155.968 92.5945 156.229 92.7805 156.571C92.9725 156.913 93.0685 157.33 93.0685 157.822C93.0685 158.302 92.9725 158.713 92.7805 159.055C92.5945 159.397 92.3485 159.658 92.0425 159.838C91.7365 160.018 91.4035 160.108 91.0435 160.108ZM91.0435 159.496C91.4215 159.496 91.7245 159.343 91.9525 159.037C92.1865 158.725 92.3035 158.32 92.3035 157.822C92.3035 157.318 92.1865 156.91 91.9525 156.598C91.7245 156.286 91.4215 156.13 91.0435 156.13C90.6715 156.13 90.3685 156.286 90.1345 156.598C89.9005 156.91 89.7835 157.318 89.7835 157.822C89.7835 158.32 89.9005 158.725 90.1345 159.037C90.3685 159.343 90.6715 159.496 91.0435 159.496ZM94.2204 160V155.626H94.8324L94.8954 156.256H94.9224C95.1144 156.046 95.3244 155.872 95.5524 155.734C95.7804 155.59 96.0234 155.518 96.2814 155.518C96.6174 155.518 96.8784 155.593 97.0644 155.743C97.2564 155.887 97.3974 156.091 97.4874 156.355C97.7154 156.109 97.9464 155.908 98.1804 155.752C98.4144 155.596 98.6634 155.518 98.9274 155.518C99.3774 155.518 99.7104 155.665 99.9264 155.959C100.148 156.247 100.259 156.67 100.259 157.228V160H99.5214V157.327C99.5214 156.919 99.4554 156.622 99.3234 156.436C99.1914 156.25 98.9874 156.157 98.7114 156.157C98.3874 156.157 98.0214 156.382 97.6134 156.832V160H96.8754V157.327C96.8754 156.919 96.8094 156.622 96.6774 156.436C96.5454 156.25 96.3384 156.157 96.0564 156.157C95.7324 156.157 95.3664 156.382 94.9584 156.832V160H94.2204ZM103.556 161.881C103.46 161.881 103.367 161.872 103.277 161.854C103.193 161.836 103.115 161.815 103.043 161.791L103.187 161.206C103.235 161.218 103.289 161.23 103.349 161.242C103.409 161.26 103.466 161.269 103.52 161.269C103.766 161.269 103.97 161.179 104.132 160.999C104.294 160.825 104.42 160.603 104.51 160.333L104.609 160.009L102.854 155.626H103.619L104.51 158.047C104.576 158.233 104.645 158.434 104.717 158.65C104.795 158.866 104.867 159.076 104.933 159.28H104.969C105.035 159.082 105.098 158.875 105.158 158.659C105.218 158.443 105.278 158.239 105.338 158.047L106.121 155.626H106.841L105.194 160.36C105.092 160.648 104.969 160.906 104.825 161.134C104.687 161.362 104.513 161.542 104.303 161.674C104.099 161.812 103.85 161.881 103.556 161.881ZM109.351 160.108C108.997 160.108 108.664 160.018 108.352 159.838C108.046 159.658 107.797 159.397 107.605 159.055C107.419 158.713 107.326 158.302 107.326 157.822C107.326 157.33 107.419 156.913 107.605 156.571C107.797 156.229 108.046 155.968 108.352 155.788C108.664 155.608 108.997 155.518 109.351 155.518C109.711 155.518 110.044 155.608 110.35 155.788C110.656 155.968 110.902 156.229 111.088 156.571C111.28 156.913 111.376 157.33 111.376 157.822C111.376 158.302 111.28 158.713 111.088 159.055C110.902 159.397 110.656 159.658 110.35 159.838C110.044 160.018 109.711 160.108 109.351 160.108ZM109.351 159.496C109.729 159.496 110.032 159.343 110.26 159.037C110.494 158.725 110.611 158.32 110.611 157.822C110.611 157.318 110.494 156.91 110.26 156.598C110.032 156.286 109.729 156.13 109.351 156.13C108.979 156.13 108.676 156.286 108.442 156.598C108.208 156.91 108.091 157.318 108.091 157.822C108.091 158.32 108.208 158.725 108.442 159.037C108.676 159.343 108.979 159.496 109.351 159.496ZM113.806 160.108C113.344 160.108 113.005 159.964 112.789 159.676C112.573 159.382 112.465 158.956 112.465 158.398V155.626H113.212V158.299C113.212 158.707 113.275 159.004 113.401 159.19C113.533 159.376 113.743 159.469 114.031 159.469C114.259 159.469 114.46 159.412 114.634 159.298C114.814 159.178 115.006 158.989 115.21 158.731V155.626H115.948V160H115.336L115.273 159.316H115.246C115.042 159.556 114.826 159.748 114.598 159.892C114.37 160.036 114.106 160.108 113.806 160.108ZM117.424 160V155.626H118.036L118.099 156.418H118.126C118.276 156.142 118.459 155.923 118.675 155.761C118.891 155.599 119.122 155.518 119.368 155.518C119.542 155.518 119.698 155.548 119.836 155.608L119.692 156.256C119.62 156.232 119.554 156.214 119.494 156.202C119.434 156.19 119.359 156.184 119.269 156.184C119.083 156.184 118.888 156.259 118.684 156.409C118.486 156.559 118.312 156.82 118.162 157.192V160H117.424ZM122.471 160V156.229H121.877V155.671L122.471 155.626V154.933C122.471 154.489 122.573 154.138 122.777 153.88C122.987 153.616 123.311 153.484 123.749 153.484C123.887 153.484 124.019 153.499 124.145 153.529C124.271 153.553 124.382 153.586 124.478 153.628L124.316 154.195C124.154 154.123 123.989 154.087 123.821 154.087C123.413 154.087 123.209 154.369 123.209 154.933V155.626H124.136V156.229H123.209V160H122.471ZM125.806 160.108C125.44 160.108 125.134 160 124.888 159.784C124.648 159.562 124.528 159.256 124.528 158.866C124.528 158.386 124.741 158.02 125.167 157.768C125.599 157.51 126.28 157.33 127.21 157.228C127.21 157.042 127.183 156.865 127.129 156.697C127.081 156.529 126.991 156.394 126.859 156.292C126.733 156.184 126.55 156.13 126.31 156.13C126.058 156.13 125.821 156.178 125.599 156.274C125.377 156.37 125.179 156.478 125.005 156.598L124.717 156.085C124.921 155.953 125.17 155.827 125.464 155.707C125.764 155.581 126.088 155.518 126.436 155.518C126.97 155.518 127.357 155.683 127.597 156.013C127.837 156.337 127.957 156.772 127.957 157.318V160H127.345L127.282 159.478H127.255C127.051 159.646 126.826 159.793 126.58 159.919C126.34 160.045 126.082 160.108 125.806 160.108ZM126.022 159.514C126.232 159.514 126.43 159.463 126.616 159.361C126.802 159.259 127 159.115 127.21 158.929V157.714C126.484 157.804 125.974 157.939 125.68 158.119C125.392 158.299 125.248 158.53 125.248 158.812C125.248 159.058 125.323 159.238 125.473 159.352C125.623 159.46 125.806 159.514 126.022 159.514ZM130.278 160L128.703 155.626H129.468L130.296 158.11C130.362 158.326 130.428 158.542 130.494 158.758C130.566 158.974 130.635 159.187 130.701 159.397H130.737C130.803 159.187 130.869 158.974 130.935 158.758C131.007 158.542 131.073 158.326 131.133 158.11L131.961 155.626H132.69L131.142 160H130.278ZM135.2 160.108C134.846 160.108 134.513 160.018 134.201 159.838C133.895 159.658 133.646 159.397 133.454 159.055C133.268 158.713 133.175 158.302 133.175 157.822C133.175 157.33 133.268 156.913 133.454 156.571C133.646 156.229 133.895 155.968 134.201 155.788C134.513 155.608 134.846 155.518 135.2 155.518C135.56 155.518 135.893 155.608 136.199 155.788C136.505 155.968 136.751 156.229 136.937 156.571C137.129 156.913 137.225 157.33 137.225 157.822C137.225 158.302 137.129 158.713 136.937 159.055C136.751 159.397 136.505 159.658 136.199 159.838C135.893 160.018 135.56 160.108 135.2 160.108ZM135.2 159.496C135.578 159.496 135.881 159.343 136.109 159.037C136.343 158.725 136.46 158.32 136.46 157.822C136.46 157.318 136.343 156.91 136.109 156.598C135.881 156.286 135.578 156.13 135.2 156.13C134.828 156.13 134.525 156.286 134.291 156.598C134.057 156.91 133.94 157.318 133.94 157.822C133.94 158.32 134.057 158.725 134.291 159.037C134.525 159.343 134.828 159.496 135.2 159.496ZM138.377 160V155.626H138.989L139.052 156.418H139.079C139.229 156.142 139.412 155.923 139.628 155.761C139.844 155.599 140.075 155.518 140.321 155.518C140.495 155.518 140.651 155.548 140.789 155.608L140.645 156.256C140.573 156.232 140.507 156.214 140.447 156.202C140.387 156.19 140.312 156.184 140.222 156.184C140.036 156.184 139.841 156.259 139.637 156.409C139.439 156.559 139.265 156.82 139.115 157.192V160H138.377ZM141.497 160V155.626H142.235V160H141.497ZM141.875 154.726C141.731 154.726 141.611 154.684 141.515 154.6C141.425 154.51 141.38 154.39 141.38 154.24C141.38 154.096 141.425 153.979 141.515 153.889C141.611 153.799 141.731 153.754 141.875 153.754C142.019 153.754 142.136 153.799 142.226 153.889C142.322 153.979 142.37 154.096 142.37 154.24C142.37 154.39 142.322 154.51 142.226 154.6C142.136 154.684 142.019 154.726 141.875 154.726ZM145.089 160.108C144.621 160.108 144.294 159.973 144.108 159.703C143.928 159.433 143.838 159.082 143.838 158.65V156.229H143.19V155.671L143.874 155.626L143.964 154.402H144.585V155.626H145.764V156.229H144.585V158.659C144.585 158.929 144.633 159.139 144.729 159.289C144.831 159.433 145.008 159.505 145.26 159.505C145.338 159.505 145.422 159.493 145.512 159.469C145.602 159.439 145.683 159.412 145.755 159.388L145.899 159.946C145.779 159.988 145.647 160.024 145.503 160.054C145.365 160.09 145.227 160.108 145.089 160.108ZM148.403 160.108C148.013 160.108 147.659 160.018 147.341 159.838C147.023 159.652 146.771 159.388 146.585 159.046C146.399 158.704 146.306 158.296 146.306 157.822C146.306 157.342 146.399 156.931 146.585 156.589C146.777 156.247 147.023 155.983 147.323 155.797C147.623 155.611 147.938 155.518 148.268 155.518C148.826 155.518 149.255 155.704 149.555 156.076C149.861 156.448 150.014 156.946 150.014 157.57C150.014 157.648 150.011 157.726 150.005 157.804C150.005 157.876 149.999 157.939 149.987 157.993H147.035C147.065 158.455 147.209 158.824 147.467 159.1C147.731 159.376 148.073 159.514 148.493 159.514C148.703 159.514 148.895 159.484 149.069 159.424C149.249 159.358 149.42 159.274 149.582 159.172L149.843 159.658C149.657 159.778 149.444 159.883 149.204 159.973C148.97 160.063 148.703 160.108 148.403 160.108ZM147.026 157.462H149.366C149.366 157.018 149.27 156.682 149.078 156.454C148.892 156.22 148.628 156.103 148.286 156.103C147.98 156.103 147.704 156.223 147.458 156.463C147.218 156.697 147.074 157.03 147.026 157.462ZM152.896 161.845V155.626H153.508L153.571 156.13H153.598C153.796 155.962 154.012 155.818 154.246 155.698C154.486 155.578 154.735 155.518 154.993 155.518C155.557 155.518 155.986 155.722 156.28 156.13C156.574 156.532 156.721 157.072 156.721 157.75C156.721 158.242 156.631 158.665 156.451 159.019C156.277 159.373 156.046 159.643 155.758 159.829C155.476 160.015 155.167 160.108 154.831 160.108C154.627 160.108 154.423 160.063 154.219 159.973C154.021 159.883 153.82 159.76 153.616 159.604L153.634 160.369V161.845H152.896ZM154.705 159.487C155.065 159.487 155.362 159.334 155.596 159.028C155.836 158.716 155.956 158.29 155.956 157.75C155.956 157.27 155.866 156.883 155.686 156.589C155.512 156.289 155.218 156.139 154.804 156.139C154.618 156.139 154.429 156.19 154.237 156.292C154.051 156.394 153.85 156.541 153.634 156.733V159.028C153.832 159.196 154.024 159.316 154.21 159.388C154.396 159.454 154.561 159.487 154.705 159.487ZM159.661 160.108C159.271 160.108 158.917 160.018 158.599 159.838C158.281 159.652 158.029 159.388 157.843 159.046C157.657 158.704 157.564 158.296 157.564 157.822C157.564 157.342 157.657 156.931 157.843 156.589C158.035 156.247 158.281 155.983 158.581 155.797C158.881 155.611 159.196 155.518 159.526 155.518C160.084 155.518 160.513 155.704 160.813 156.076C161.119 156.448 161.272 156.946 161.272 157.57C161.272 157.648 161.269 157.726 161.263 157.804C161.263 157.876 161.257 157.939 161.245 157.993H158.293C158.323 158.455 158.467 158.824 158.725 159.1C158.989 159.376 159.331 159.514 159.751 159.514C159.961 159.514 160.153 159.484 160.327 159.424C160.507 159.358 160.678 159.274 160.84 159.172L161.101 159.658C160.915 159.778 160.702 159.883 160.462 159.973C160.228 160.063 159.961 160.108 159.661 160.108ZM158.284 157.462H160.624C160.624 157.018 160.528 156.682 160.336 156.454C160.15 156.22 159.886 156.103 159.544 156.103C159.238 156.103 158.962 156.223 158.716 156.463C158.476 156.697 158.332 157.03 158.284 157.462ZM162.353 160V155.626H162.965L163.028 156.418H163.055C163.205 156.142 163.388 155.923 163.604 155.761C163.82 155.599 164.051 155.518 164.297 155.518C164.471 155.518 164.627 155.548 164.765 155.608L164.621 156.256C164.549 156.232 164.483 156.214 164.423 156.202C164.363 156.19 164.288 156.184 164.198 156.184C164.012 156.184 163.817 156.259 163.613 156.409C163.415 156.559 163.241 156.82 163.091 157.192V160H162.353ZM166.581 160.108C166.269 160.108 165.972 160.051 165.69 159.937C165.408 159.817 165.162 159.673 164.952 159.505L165.321 159.01C165.513 159.16 165.711 159.286 165.915 159.388C166.119 159.484 166.35 159.532 166.608 159.532C166.896 159.532 167.112 159.466 167.256 159.334C167.4 159.196 167.472 159.034 167.472 158.848C167.472 158.698 167.421 158.572 167.319 158.47C167.223 158.368 167.097 158.284 166.941 158.218C166.791 158.146 166.635 158.08 166.473 158.02C166.269 157.942 166.068 157.855 165.87 157.759C165.672 157.657 165.51 157.528 165.384 157.372C165.258 157.21 165.195 157.006 165.195 156.76C165.195 156.406 165.327 156.112 165.591 155.878C165.861 155.638 166.233 155.518 166.707 155.518C166.977 155.518 167.229 155.566 167.463 155.662C167.697 155.758 167.898 155.875 168.066 156.013L167.706 156.481C167.556 156.367 167.4 156.274 167.238 156.202C167.076 156.13 166.899 156.094 166.707 156.094C166.431 156.094 166.227 156.157 166.095 156.283C165.969 156.409 165.906 156.556 165.906 156.724C165.906 156.862 165.951 156.976 166.041 157.066C166.131 157.15 166.248 157.225 166.392 157.291C166.536 157.351 166.689 157.414 166.851 157.48C167.061 157.558 167.268 157.648 167.472 157.75C167.676 157.846 167.844 157.978 167.976 158.146C168.114 158.308 168.183 158.527 168.183 158.803C168.183 159.037 168.12 159.253 167.994 159.451C167.874 159.649 167.694 159.808 167.454 159.928C167.22 160.048 166.929 160.108 166.581 160.108ZM170.91 160.108C170.556 160.108 170.223 160.018 169.911 159.838C169.605 159.658 169.356 159.397 169.164 159.055C168.978 158.713 168.885 158.302 168.885 157.822C168.885 157.33 168.978 156.913 169.164 156.571C169.356 156.229 169.605 155.968 169.911 155.788C170.223 155.608 170.556 155.518 170.91 155.518C171.27 155.518 171.603 155.608 171.909 155.788C172.215 155.968 172.461 156.229 172.647 156.571C172.839 156.913 172.935 157.33 172.935 157.822C172.935 158.302 172.839 158.713 172.647 159.055C172.461 159.397 172.215 159.658 171.909 159.838C171.603 160.018 171.27 160.108 170.91 160.108ZM170.91 159.496C171.288 159.496 171.591 159.343 171.819 159.037C172.053 158.725 172.17 158.32 172.17 157.822C172.17 157.318 172.053 156.91 171.819 156.598C171.591 156.286 171.288 156.13 170.91 156.13C170.538 156.13 170.235 156.286 170.001 156.598C169.767 156.91 169.65 157.318 169.65 157.822C169.65 158.32 169.767 158.725 170.001 159.037C170.235 159.343 170.538 159.496 170.91 159.496ZM174.087 160V155.626H174.699L174.762 156.256H174.789C174.999 156.046 175.221 155.872 175.455 155.734C175.689 155.59 175.956 155.518 176.256 155.518C176.718 155.518 177.054 155.665 177.264 155.959C177.48 156.247 177.588 156.67 177.588 157.228V160H176.85V157.327C176.85 156.919 176.784 156.622 176.652 156.436C176.52 156.25 176.31 156.157 176.022 156.157C175.8 156.157 175.599 156.214 175.419 156.328C175.245 156.442 175.047 156.61 174.825 156.832V160H174.087Z" fill="#97989D"/>
</g>
<defs>
<filter id="filter0_d_31_5726" x="0" y="0" width="218" height="188" filterUnits="userSpaceOnUse" color-interpolation-filters="sRGB">
<feFlood flood-opacity="0" result="BackgroundImageFix"/>
<feColorMatrix in="SourceAlpha" type="matrix" values="0 0 0 0 0 0 0 0 0 0 0 0 0 0 0 0 0 0 127 0" result="hardAlpha"/>
<feOffset dy="4"/>
<feGaussianBlur stdDeviation="2"/>
<feComposite in2="hardAlpha" operator="out"/>
<feColorMatrix type="matrix" values="0 0 0 0 0 0 0 0 0 0 0 0 0 0 0 0 0 0 0.25 0"/>
<feBlend mode="normal" in2="BackgroundImageFix" result="effect1_dropShadow_31_5726"/>
<feBlend mode="normal" in="SourceGraphic" in2="effect1_dropShadow_31_5726" result="shape"/>
</filter>
</defs>
</svg>
